<?xml version="1.0" encoding="UTF-8" standalone="no"?>
<!-- Created with Inkscape (http://www.inkscape.org/) -->
<svg
   xmlns:dc="http://purl.org/dc/elements/1.1/"
   xmlns:cc="http://creativecommons.org/ns#"
   xmlns:rdf="http://www.w3.org/1999/02/22-rdf-syntax-ns#"
   xmlns:svg="http://www.w3.org/2000/svg"
   xmlns="http://www.w3.org/2000/svg"
   xmlns:sodipodi="http://sodipodi.sourceforge.net/DTD/sodipodi-0.dtd"
   xmlns:inkscape="http://www.inkscape.org/namespaces/inkscape"
   id="svg2"
   sodipodi:version="0.32"
   inkscape:version="0.46"
   width="442.77298"
   height="267.71674"
   xml:space="preserve"
   sodipodi:docname="pitch.svg"
   version="1.0"
   inkscape:output_extension="org.inkscape.output.svg.inkscape"><metadata
     id="metadata7"><rdf:RDF><cc:Work
         rdf:about=""><dc:format>image/svg+xml</dc:format><dc:type
           rdf:resource="http://purl.org/dc/dcmitype/StillImage" /></cc:Work></rdf:RDF></metadata><defs
     id="defs5"><inkscape:perspective
       sodipodi:type="inkscape:persp3d"
       inkscape:vp_x="0 : 526.18109 : 1"
       inkscape:vp_y="0 : 1000 : 0"
       inkscape:vp_z="744.09448 : 526.18109 : 1"
       inkscape:persp3d-origin="372.04724 : 350.78739 : 1"
       id="perspective9" /></defs><sodipodi:namedview
     inkscape:window-height="978"
     inkscape:window-width="1400"
     inkscape:pageshadow="2"
     inkscape:pageopacity="0.0"
     guidetolerance="10.0"
     gridtolerance="10.0"
     objecttolerance="10.0"
     borderopacity="1.0"
     bordercolor="#666666"
     pagecolor="#ffffff"
     id="base"
     showgrid="false"
     inkscape:zoom="2.6528736"
     inkscape:cx="235.12592"
     inkscape:cy="130.84585"
     inkscape:window-x="0"
     inkscape:window-y="25"
     inkscape:current-layer="g11" /><g
     id="g11"
     inkscape:groupmode="layer"
     inkscape:label="pitch"
     transform="matrix(1.25,0,0,-1.25,-1.1498431,267.61511)"><path
       id="path15"
       style="fill:none;stroke:#000000;stroke-width:0.3985;stroke-linecap:butt;stroke-linejoin:miter;stroke-miterlimit:10;stroke-dasharray:none;stroke-opacity:1"
       d="M 198.983,103.308 C 198.983,117.467 187.63,128.82 173.471,128.82 C 159.312,128.82 147.959,117.467 147.959,103.308 C 147.959,89.1488 159.312,77.7957 173.471,77.7957 C 187.63,77.7957 198.983,89.1488 198.983,103.308 z" /><path
       id="path17"
       style="fill:none;stroke:#000000;stroke-width:0.3985;stroke-linecap:butt;stroke-linejoin:miter;stroke-miterlimit:10;stroke-dasharray:none;stroke-opacity:1"
       d="M 31.7371,194.018 L 31.7371,12.5984 L 315.205,12.5984 L 315.205,194.018 L 31.7371,194.018 z M 173.471,194.018 L 173.471,12.5984" /><path
       id="path19"
       style="fill:#000000;fill-opacity:1;fill-rule:nonzero;stroke:none"
       d="M 34.5551,194.018 C 34.5551,195.582 33.3012,196.836 31.7371,196.836 C 30.173,196.836 28.9191,195.582 28.9191,194.018 C 28.9191,192.454 30.173,191.2 31.7371,191.2 C 33.3012,191.2 34.5551,192.454 34.5551,194.018" /><g
       id="g21"><text
         id="text23"
         transform="matrix(1,0,0,-1,8.37383,199.67)"><tspan
           id="tspan25"
           sodipodi:role="line"
           y="0"
           x="0 6.5057654 11.487253"
           style="font-size:9.96259975px;font-variant:normal;font-weight:normal;writing-mode:lr-tb;fill:#000000;fill-opacity:1;fill-rule:nonzero;stroke:none;font-family:CMR10;-inkscape-font-specification:CMR10">F1L</tspan></text>
</g><path
       id="path27"
       style="fill:#000000;fill-opacity:1;fill-rule:nonzero;stroke:none"
       d="M 34.5551,12.5984 C 34.5551,14.1621 33.3012,15.4164 31.7371,15.4164 C 30.173,15.4164 28.9191,14.1621 28.9191,12.5984 C 28.9191,11.0344 30.173,9.78008 31.7371,9.78008 C 33.3012,9.78008 34.5551,11.0344 34.5551,12.5984" /><g
       id="g29"><text
         id="text31"
         transform="matrix(1,0,0,-1,8.37383,0.137891)"><tspan
           id="tspan33"
           sodipodi:role="line"
           y="0"
           x="0 6.5057654 11.487253"
           style="font-size:9.96259975px;font-variant:normal;font-weight:normal;writing-mode:lr-tb;fill:#000000;fill-opacity:1;fill-rule:nonzero;stroke:none;font-family:CMR10;-inkscape-font-specification:CMR10">F2L</tspan></text>
</g><path
       id="path35"
       style="fill:#000000;fill-opacity:1;fill-rule:nonzero;stroke:none"
       d="M 318.023,12.5984 C 318.023,14.1621 316.769,15.4164 315.205,15.4164 C 313.641,15.4164 312.387,14.1621 312.387,12.5984 C 312.387,11.0344 313.641,9.78008 315.205,9.78008 C 316.769,9.78008 318.023,11.0344 318.023,12.5984" /><g
       id="g37"><text
         id="text39"
         transform="matrix(1,0,0,-1,320.856,0.137891)"><tspan
           id="tspan41"
           sodipodi:role="line"
           y="0"
           x="0 6.5058517 11.487426"
           style="font-size:9.96259975px;font-variant:normal;font-weight:normal;writing-mode:lr-tb;fill:#000000;fill-opacity:1;fill-rule:nonzero;stroke:none;font-family:CMR10;-inkscape-font-specification:CMR10">F2R</tspan></text>
</g><path
       id="path43"
       style="fill:#000000;fill-opacity:1;fill-rule:nonzero;stroke:none"
       d="M 318.023,194.018 C 318.023,195.582 316.769,196.836 315.205,196.836 C 313.641,196.836 312.387,195.582 312.387,194.018 C 312.387,192.454 313.641,191.2 315.205,191.2 C 316.769,191.2 318.023,192.454 318.023,194.018" /><g
       id="g45"><text
         id="text47"
         transform="matrix(1,0,0,-1,320.856,199.67)"><tspan
           id="tspan49"
           sodipodi:role="line"
           y="0"
           x="0 6.5058517 11.487426"
           style="font-size:9.96259975px;font-variant:normal;font-weight:normal;writing-mode:lr-tb;fill:#000000;fill-opacity:1;fill-rule:nonzero;stroke:none;font-family:CMR10;-inkscape-font-specification:CMR10">F1R</tspan></text>
</g><path
       id="path51"
       style="fill:none;stroke:#000000;stroke-width:0.3985;stroke-linecap:butt;stroke-linejoin:miter;stroke-miterlimit:10;stroke-dasharray:none;stroke-opacity:1"
       d="M 31.7371,148.663 L 74.257,148.663 L 74.257,57.9527 L 31.7371,57.9527" /><path
       id="path53"
       style="fill:none;stroke:#000000;stroke-width:0.3985;stroke-linecap:butt;stroke-linejoin:miter;stroke-miterlimit:10;stroke-dasharray:none;stroke-opacity:1"
       d="M 315.205,148.663 L 272.685,148.663 L 272.685,57.9527 L 315.205,57.9527" /><path
       id="path55"
       style="fill:#000000;fill-opacity:1;fill-rule:nonzero;stroke:none"
       d="M 34.5551,128.82 C 34.5551,130.384 33.3012,131.638 31.7371,131.638 C 30.173,131.638 28.9191,130.384 28.9191,128.82 C 28.9191,127.256 30.173,126.002 31.7371,126.002 C 33.3012,126.002 34.5551,127.256 34.5551,128.82" /><g
       id="g57"><text
         id="text59"
         transform="matrix(1,0,0,-1,38.2762,125.416)"><tspan
           id="tspan61"
           sodipodi:role="line"
           y="0"
           x="0 7.8207111 12.802081"
           style="font-size:9.96259975px;font-variant:normal;font-weight:normal;writing-mode:lr-tb;fill:#000000;fill-opacity:1;fill-rule:nonzero;stroke:none;font-family:CMR10;-inkscape-font-specification:CMR10">G1L</tspan></text>
</g><path
       id="path63"
       style="fill:#000000;fill-opacity:1;fill-rule:nonzero;stroke:none"
       d="M 34.5551,77.7961 C 34.5551,79.3602 33.3012,80.6141 31.7371,80.6141 C 30.173,80.6141 28.9191,79.3602 28.9191,77.7961 C 28.9191,76.232 30.173,74.9781 31.7371,74.9781 C 33.3012,74.9781 34.5551,76.232 34.5551,77.7961" /><g
       id="g65"><text
         id="text67"
         transform="matrix(1,0,0,-1,38.2762,74.3922)"><tspan
           id="tspan69"
           sodipodi:role="line"
           y="0"
           x="0 7.8207111 12.802081"
           style="font-size:9.96259975px;font-variant:normal;font-weight:normal;writing-mode:lr-tb;fill:#000000;fill-opacity:1;fill-rule:nonzero;stroke:none;font-family:CMR10;-inkscape-font-specification:CMR10">G2L</tspan></text>
</g><path
       id="path71"
       style="fill:none;stroke:#000000;stroke-width:1.99255013;stroke-linecap:butt;stroke-linejoin:miter;stroke-miterlimit:10;stroke-dasharray:none;stroke-opacity:1"
       d="M 28.7199,128.82 L 26.068,128.82 L 26.068,77.7961 L 28.7199,77.7961" /><path
       id="path73"
       style="fill:#000000;fill-opacity:1;fill-rule:nonzero;stroke:none"
       d="M 318.023,128.82 C 318.023,130.384 316.769,131.638 315.205,131.638 C 313.641,131.638 312.387,130.384 312.387,128.82 C 312.387,127.256 313.641,126.002 315.205,126.002 C 316.769,126.002 318.023,127.256 318.023,128.82" /><g
       id="g75"><text
         id="text77"
         transform="matrix(1,0,0,-1,288.533,125.416)"><tspan
           id="tspan79"
           sodipodi:role="line"
           y="0"
           x="0 7.8207645 12.802188"
           style="font-size:9.96259975px;font-variant:normal;font-weight:normal;writing-mode:lr-tb;fill:#000000;fill-opacity:1;fill-rule:nonzero;stroke:none;font-family:CMR10;-inkscape-font-specification:CMR10">G1R</tspan></text>
</g><path
       id="path81"
       style="fill:#000000;fill-opacity:1;fill-rule:nonzero;stroke:none"
       d="M 318.023,77.7961 C 318.023,79.3602 316.769,80.6141 315.205,80.6141 C 313.641,80.6141 312.387,79.3602 312.387,77.7961 C 312.387,76.232 313.641,74.9781 315.205,74.9781 C 316.769,74.9781 318.023,76.232 318.023,77.7961" /><g
       id="g83"><text
         id="text85"
         transform="matrix(1,0,0,-1,288.533,74.3922)"><tspan
           id="tspan87"
           sodipodi:role="line"
           y="0"
           x="0 7.8207645 12.802188"
           style="font-size:9.96259975px;font-variant:normal;font-weight:normal;writing-mode:lr-tb;fill:#000000;fill-opacity:1;fill-rule:nonzero;stroke:none;font-family:CMR10;-inkscape-font-specification:CMR10">G2R</tspan></text>
</g><path
       id="path89"
       style="fill:none;stroke:#000000;stroke-width:1.99255013;stroke-linecap:butt;stroke-linejoin:miter;stroke-miterlimit:10;stroke-dasharray:none;stroke-opacity:1"
       d="M 318.222,128.82 L 320.874,128.82 L 320.874,77.7961 L 318.222,77.7961" /><path
       id="path91"
       style="fill:none;stroke:#000000;stroke-width:0.3985;stroke-linecap:butt;stroke-linejoin:miter;stroke-miterlimit:10;stroke-dasharray:none;stroke-opacity:1"
       d="M 173.471,103.308 L 196.592,103.308" /><path
       id="path93"
       style="fill:#000000;fill-opacity:1;fill-rule:nonzero;stroke:none"
       d="M 198.983,103.308 C 197.987,103.507 196.193,103.906 194.998,104.802 C 195.994,103.707 195.994,102.909 194.998,101.814 C 196.193,102.71 197.987,103.109 198.983,103.308" /><path
       id="path101"
       style="fill:none;stroke:#000000;stroke-width:0.3985;stroke-linecap:butt;stroke-linejoin:miter;stroke-miterlimit:10;stroke-dasharray:none;stroke-opacity:1"
       d="M 31.7371,199.687 L 31.7371,208.191" /><path
       id="path103"
       style="fill:none;stroke:#000000;stroke-width:0.3985;stroke-linecap:butt;stroke-linejoin:miter;stroke-miterlimit:10;stroke-dasharray:none;stroke-opacity:1"
       d="M 315.205,199.687 L 315.205,208.191" /><path
       id="path105"
       style="fill:none;stroke:#000000;stroke-width:0.3985;stroke-linecap:butt;stroke-linejoin:miter;stroke-miterlimit:10;stroke-dasharray:none;stroke-opacity:1"
       d="M 34.1281,203.939 L 312.814,203.939" /><path
       id="path107"
       style="fill:#000000;fill-opacity:1;fill-rule:nonzero;stroke:none"
       d="M 31.7371,203.939 C 32.7332,203.74 34.5266,203.341 35.7219,202.445 C 34.7258,203.541 34.7258,204.338 35.7219,205.433 C 34.5266,204.537 32.7332,204.138 31.7371,203.939" /><path
       id="path109"
       style="fill:#000000;fill-opacity:1;fill-rule:nonzero;stroke:none"
       d="M 315.205,203.939 C 314.209,204.138 312.416,204.537 311.22,205.433 C 312.216,204.338 312.216,203.541 311.22,202.445 C 312.416,203.341 314.209,203.74 315.205,203.939" /><g
       id="g111"><text
         id="text113"
         transform="matrix(1,0,0,-1,164.338,207.457)"><tspan
           id="tspan115"
           sodipodi:role="line"
           x="0"
           style="font-size:9.96259975px;font-variant:normal;font-weight:normal;writing-mode:lr-tb;fill:#000000;fill-opacity:1;fill-rule:nonzero;stroke:none;font-family:CMR10;-inkscape-font-specification:CMR10"
           y="0">18m</tspan></text>
</g><path
       id="path117"
       style="fill:none;stroke:#000000;stroke-width:0.3985;stroke-linecap:butt;stroke-linejoin:miter;stroke-miterlimit:10;stroke-dasharray:none;stroke-opacity:1"
       d="M 26.068,194.018 L 17.5641,194.018" /><path
       id="path119"
       style="fill:none;stroke:#000000;stroke-width:0.3985;stroke-linecap:butt;stroke-linejoin:miter;stroke-miterlimit:10;stroke-dasharray:none;stroke-opacity:1"
       d="M 26.068,12.5984 L 17.5641,12.5984" /><path
       id="path121"
       style="fill:none;stroke:#000000;stroke-width:0.3985;stroke-linecap:butt;stroke-linejoin:miter;stroke-miterlimit:10;stroke-dasharray:none;stroke-opacity:1"
       d="M 21.816,14.9895 L 21.816,191.627" /><path
       id="path123"
       style="fill:#000000;fill-opacity:1;fill-rule:nonzero;stroke:none"
       d="M 21.816,12.5984 C 22.0152,13.5945 22.4137,15.3879 23.3105,16.5832 C 22.2145,15.5871 21.4176,15.5871 20.3215,16.5832 C 21.2184,15.3879 21.6168,13.5945 21.816,12.5984" /><path
       id="path125"
       style="fill:#000000;fill-opacity:1;fill-rule:nonzero;stroke:none"
       d="M 21.816,194.018 C 21.6168,193.021 21.2184,191.228 20.3215,190.033 C 21.4176,191.029 22.2145,191.029 23.3105,190.033 C 22.4137,191.228 22.0152,193.021 21.816,194.018" /><g
       id="g127"><text
         id="text129"
         transform="matrix(1,0,0,-1,3.32031e-2,100.098)"><tspan
           id="tspan131"
           sodipodi:role="line"
           x="0"
           style="font-size:9.96259975px;font-variant:normal;font-weight:normal;writing-mode:lr-tb;fill:#000000;fill-opacity:1;fill-rule:nonzero;stroke:none;font-family:CMR10;-inkscape-font-specification:CMR10"
           y="0">12m</tspan></text>
</g><path
       id="path133"
       style="fill:none;stroke:#000000;stroke-width:0.3985;stroke-linecap:butt;stroke-linejoin:miter;stroke-miterlimit:10;stroke-dasharray:none;stroke-opacity:1"
       d="M 326.544,128.82 L 335.047,128.82" /><path
       id="path135"
       style="fill:none;stroke:#000000;stroke-width:0.3985;stroke-linecap:butt;stroke-linejoin:miter;stroke-miterlimit:10;stroke-dasharray:none;stroke-opacity:1"
       d="M 326.544,77.7961 L 335.047,77.7961" /><path
       id="path137"
       style="fill:none;stroke:#000000;stroke-width:0.3985;stroke-linecap:butt;stroke-linejoin:miter;stroke-miterlimit:10;stroke-dasharray:none;stroke-opacity:1"
       d="M 330.795,126.429 L 330.795,80.1871" /><path
       id="path139"
       style="fill:#000000;fill-opacity:1;fill-rule:nonzero;stroke:none"
       d="M 330.795,128.82 C 330.596,127.824 330.197,126.03 329.301,124.835 C 330.396,125.831 331.193,125.831 332.289,124.835 C 331.393,126.03 330.994,127.824 330.795,128.82" /><path
       id="path141"
       style="fill:#000000;fill-opacity:1;fill-rule:nonzero;stroke:none"
       d="M 330.795,77.7961 C 330.994,78.7922 331.393,80.5855 332.289,81.7812 C 331.193,80.7848 330.396,80.7848 329.301,81.7812 C 330.197,80.5855 330.596,78.7922 330.795,77.7961" /><g
       id="g143"><text
         id="text145"
         transform="matrix(1,0,0,-1,334.313,100.098)"><tspan
           id="tspan147"
           sodipodi:role="line"
           x="0"
           style="font-size:9.96259975px;font-variant:normal;font-weight:normal;writing-mode:lr-tb;fill:#000000;fill-opacity:1;fill-rule:nonzero;stroke:none;font-family:CMR10;-inkscape-font-specification:CMR10"
           y="0">2.1m</tspan></text>
</g><path
       id="path2587"
       style="fill:none;stroke:#000000;stroke-width:0.3985;stroke-linecap:butt;stroke-linejoin:miter;stroke-miterlimit:10;stroke-dasharray:none;stroke-opacity:1"
       d="M 258.71411,148.42356 L 267.21711,148.42356" /><path
       id="path2589"
       style="fill:none;stroke:#000000;stroke-width:0.3985;stroke-linecap:butt;stroke-linejoin:miter;stroke-miterlimit:10;stroke-dasharray:none;stroke-opacity:1"
       d="M 258.71411,58.019593 L 267.21711,58.019593" /><path
       id="path2591"
       style="fill:none;stroke:#000000;stroke-width:0.3985;stroke-linecap:butt;stroke-linejoin:miter;stroke-miterlimit:10;stroke-dasharray:none;stroke-opacity:1"
       d="M 262.96511,146.31387 L 262.96511,60.329965" /><path
       id="path2593"
       style="fill:#000000;fill-opacity:1;fill-rule:nonzero;stroke:none"
       d="M 262.96511,148.42356 C 262.76611,147.42756 262.36711,145.63356 261.47111,144.43856 C 262.56611,145.43456 263.36311,145.43456 264.45911,144.43856 C 263.56311,145.63356 263.16411,147.42756 262.96511,148.42356" /><path
       id="path2595"
       style="fill:#000000;fill-opacity:1;fill-rule:nonzero;stroke:none"
       d="M 262.96511,58.019593 C 263.16411,59.015693 263.56311,60.808993 264.45911,62.004693 C 263.36311,61.008293 262.56611,61.008293 261.47111,62.004693 C 262.36711,60.808993 262.76611,59.015693 262.96511,58.019593" /><g
       id="g2597"
       transform="translate(-97.06386,-4.3964382)"><text
         id="text2599"
         transform="matrix(1,0,0,-1,334.313,100.098)"><tspan
           id="tspan2601"
           sodipodi:role="line"
           x="0"
           style="font-size:9.96259975px;font-variant:normal;font-weight:normal;writing-mode:lr-tb;fill:#000000;fill-opacity:1;fill-rule:nonzero;stroke:none;font-family:CMR10;-inkscape-font-specification:CMR10"
           y="0">3.9m</tspan></text>
<path
         id="path2603"
         style="fill:none;stroke:#000000;stroke-width:0.3985;stroke-linecap:butt;stroke-linejoin:miter;stroke-miterlimit:10;stroke-dasharray:none;stroke-opacity:1"
         d="M 412.24232,57.317252 L 412.24232,48.814252" /><path
         id="path2605"
         style="fill:none;stroke:#000000;stroke-width:0.3985;stroke-linecap:butt;stroke-linejoin:miter;stroke-miterlimit:10;stroke-dasharray:none;stroke-opacity:1"
         d="M 369.74615,57.317252 L 369.74615,48.814252" /><path
         id="path2607"
         style="fill:none;stroke:#000000;stroke-width:0.3985;stroke-linecap:butt;stroke-linejoin:miter;stroke-miterlimit:10;stroke-dasharray:none;stroke-opacity:1"
         d="M 409.88738,53.066252 L 372.01701,53.066252" /><path
         id="path2609"
         style="fill:#000000;fill-opacity:1;fill-rule:nonzero;stroke:none"
         d="M 412.24232,53.066252 C 411.24632,53.265252 409.45232,53.664252 408.25732,54.560252 C 409.25332,53.465252 409.25332,52.668252 408.25732,51.572252 C 409.45232,52.468252 411.24632,52.867252 412.24232,53.066252" /><path
         id="path2611"
         style="fill:#000000;fill-opacity:1;fill-rule:nonzero;stroke:none"
         d="M 369.74615,53.066252 C 370.74225,52.867252 372.53555,52.468252 373.73125,51.572252 C 372.73485,52.668252 372.73485,53.465252 373.73125,54.560252 C 372.53555,53.664252 370.74225,53.265252 369.74615,53.066252" /><g
         transform="translate(40.351341,-143.26449)"
         id="g2613"><text
           id="text2615"
           transform="scale(1,-1)"
           x="339.00418"
           y="-187.09787"><tspan
             id="tspan2617"
             sodipodi:role="line"
             x="339.00418"
             style="font-size:9.96259975px;font-variant:normal;font-weight:normal;writing-mode:lr-tb;fill:#000000;fill-opacity:1;fill-rule:nonzero;stroke:none;font-family:CMR10;-inkscape-font-specification:CMR10"
             y="-187.09787">1.8m</tspan></text>
</g><text
         id="text2619"
         transform="scale(1,-1)"
         x="273.07593"
         y="-111.0578"><tspan
           id="tspan2621"
           sodipodi:role="line"
           x="273.07593"
           style="font-size:9.96259975px;font-variant:normal;font-weight:normal;writing-mode:lr-tb;fill:#000000;fill-opacity:1;fill-rule:nonzero;stroke:none;font-family:CMR10;-inkscape-font-specification:CMR10"
           y="-111.0578">1.5m</tspan></text>
</g></g></svg>