/* XPM */
static const char *xpm_hinge[] = {
/* columns rows colors chars-per-pixel */
"64 22 213 2",
"_  c #3C4249",
"   c None",
" . c #DCD62C",
"(  c #848084",
"N  c #D4D2D1",
"x. c #747234",
"a. c #444A3F",
"1X c #8C8E8C",
".  c #ECF6CC",
"l. c #B4B634",
"u. c #3C425C",
"a  c #F4FEBC",
"4. c #9C9E74",
"<. c #4C523C",
"9. c #3C4264",
"3. c #7C7A34",
"^. c #8C8B94",
"u  c #E4DE34",
"q  c #D4E21C",
"p. c #DCDADC",
"X. c #3C3644",
"c  c #F4EE14",
"<  c #A4AAFC",
"9X c #949694",
"OX c #545A38",
"O. c #5C5A8C",
"6  c #545ECC",
"-. c #444A64",
"8. c #44475C",
"$X c #4C462C",
"t  c #DCEA1C",
"B. c #8C9ADC",
"B  c #6C6A74",
"@X c #E4E2E1",
"C  c #8CA0FC",
"/. c #4C463C",
"D. c #444A7C",
"v  c #FCF624",
"~. c #9C9EA4",
"Z  c #848FFC",
"*X c #2C2E2D",
"W. c #9496BC",
"0X c #C4BEB4",
"U  c #9CB6FC",
":. c #544E3B",
"R  c #8C9AFC",
"|  c #CCC82C",
";. c #ECEAEC",
"]  c #A4C1FC",
"0  c #D4D630",
"V  c #6462AC",
"+X c #A4A6A4",
",  c #C4D0FC",
"U. c #9C9A2C",
"4  c #5C66EC",
"'  c #4C5284",
"e. c #B4DAFC",
"K  c #7C7A7C",
"-  c #E4EAA4",
"J. c #5C563B",
"T  c #94A2FC",
"P  c #343635",
"3  c #5C66F4",
"o  c #ECEAFC",
":X c #5C6268",
"e  c #E4E620",
"8  c #F4F2F1",
"(. c #645E34",
"f. c #6C6624",
"h. c #A4A230",
"j  c #6C7FFC",
"6X c #ACAEB1",
"5. c #F4F2FC",
"t. c #747ED4",
"i  c #F4E24C",
"s. c #44462C",
"s  c #C4BEEC",
"F. c #3C3E45",
"1. c #BCC634",
"P. c #44463F",
"%  c #BCBA1C",
"+  c #A4A6E4",
"%. c #ACBAFC",
"r. c #8CA2E4",
"m  c #FCFE19",
"H. c #4C4E3B",
"1  c #7C8CFC",
"Z. c #444652",
"b. c #E4E65C",
"-X c #BCBEBC",
"n  c #FCFE24",
"w. c #C4DEFC",
"d  c #8497FC",
"$. c #B4C2FC",
"7  c #646A9C",
"R. c #9C9A84",
"&X c #BCBEC8",
"G  c #FCFE31",
"_. c #54563C",
"&  c #C4C228",
"]. c #4C4E50",
"A  c #7C86FC",
"@. c #444664",
"g. c #847E34",
"9  c #F4EEB4",
"}. c #4C4844",
"k. c #FCFE3C",
"z. c #5C5E34",
"*  c #CCD64C",
"2X c #C4C6C8",
" X c #6C72A4",
"Q. c #444674",
"Y  c #94AAFC",
"2. c #9CA234",
"L. c #64662C",
"c. c #8C8634",
"2  c #5C6BF4",
"7X c #2C2A2C",
")  c #545660",
".X c #4C4E74",
"[  c #9CB2FC",
"p  c #F4F66C",
"@  c #8C8AD4",
"M. c #F4FAFC",
"V. c #4C4E7C",
"8X c #CCCED4",
"5  c #5C62E8",
"7. c #6C72C4",
"Q  c #FCFE64",
"E. c #CCCA4C",
"`. c #5C523C",
"L  c #5C5E64",
"[. c #343235",
"!. c #4C4E8C",
">  c #ECE6FC",
"'. c #747630",
"I. c #7C7E24",
"w  c #E4E224",
",X c #ACAAAC",
".. c #343244",
"`  c #3C3D3C",
"/  c #3C3A32",
"I  c #545C9C",
"S  c #7486FC",
"=X c #DCDED4",
"h  c #6C78FC",
"*. c #7C8EEC",
"n. c #FCFE8C",
"D  c #5C6AAC",
";X c #8C867C",
"#. c #A4AEFC",
"^  c #3C3A46",
"x  c #ECF654",
"!  c #F4F21C",
"5X c #6C6E6C",
"~  c #44423C",
"f  c #7480FC",
"j. c #ECEA34",
"6. c #D4D6FC",
"0. c #8C9EDC",
"i. c #444247",
",. c #8C8E2C",
"H  c #4C4A3B",
"#X c #74766C",
"g  c #747AFC",
"XX c #BCBABC",
"o. c #444255",
"F  c #FCFEB4",
"l  c #5C76FC",
";  c #F4F6CC",
"b  c #FCFA2C",
"$  c #D4C664",
"{. c #BCBAC7",
"&. c #9CBAFC",
"A. c #8C92D4",
"d. c #54523B",
"<X c #7C7E6C",
"oX c #4C4A51",
"J  c #2C3238",
">X c #747684",
"y  c #DCE21C",
"C. c #444268",
"=  c #E4E274",
"K. c #5C5A35",
"#  c #ECEEF4",
"O  c #C4CEEC",
"m. c #FCFED0",
"E  c #6472DC",
"T. c #949644",
"}  c #94A6FC",
"W  c #9CA2C4",
"G. c #545254",
"=. c #6C7AD4",
"q. c #D4EAFC",
"k  c #6478FC",
"S. c #7482C4",
"+. c #4C4A6C",
"). c #646234",
"%X c #7C7E8C",
"r  c #E4EA24",
"M  c #444A1C",
"4X c #5C5A4C",
":  c #FCFEE4",
"{  c #9CAEFC",
"y. c #545E8C",
"z  c #CCCACC",
"N. c #BCBAF4",
"Y. c #DCE244",
"|. c #3C423C",
"X  c #FCFEF1",
">. c #6C6A34",
"v. c #ACAE2C",
"3X c #84868C",
/* pixels */
"                                                                                                                                ",
"                  . X                                                                           o O + @ #                       ",
"                $ % % & * = - ; :                                                     > , < 1 2 3 4 4 5 6 7 8                   ",
"            9 0 q w w e r r r t y u i p a                                       s d f g h h f j j h k k l 2 6 z                 ",
"          x c v v b n n n m n n n b m m M N                                     B V C d 1 Z 1 1 A S f f j h h 3 D 8             ",
"      F b m G n n n n n n G n n n n G H J K                                     L P I U Y T C R R d Z 1 1 A S j h E W 8         ",
"    Q m n n n n G n n G n n n G n ! ~ ^ / (                                     ) _ ` ' U ] [ { Y } T C R Z Z 1 1 A g V         ",
"  | v n n n G n n n n n n n n n  .^ ..X.J (                                     P o.O.+.@.#., $.%.&.%.[ [ { C *.=.I -.J         ",
";./ :.>.,.| w b G G G G G G G | X.<.1.2.3.4.                                5.6.7.7.V +.8.9.0.q.w.e.] r.t.y.+.u.` i.` ^         ",
"p.a.s.H H H d.f.g.h. .j.k.k.l.` ~ H z.x.c.v. .b.n.m.:   X m.  :   M.> N.B.7.V.C.o.i._ i.Z.@.9.A.S.y.D.9.F.i.Z.i.i.i.F.i.        ",
"  G.~ H H.<.d.J.J.K.K.L.g.h.` P.~ P.d.<.:.H H d.f.I.U.0 Y.T.R.E.W.O.Q.C.^ F.i.Z.Z.Z.Z.i.8.@.+.!.u.8.8.Z.o.o.i.i._ F.P ~.        ",
"  ^./ P./.H.H.:.J.K.(.).(.x.H P.i.~ _.d.d.J._.J.`.d.:.:.` '.'./.].F.o.Z.Z.Z.Z.Z.Z.o._ Z.i.Z.8.' 8.8.o.Z.Z.i.i._ i.~ [.{.        ",
"  z P P.P.H }.H.d.d.K.K.(.>.:.~ P.|.d.d.d.d.d.`._.J.K.d.}.J._.Z. Xo.8.o.o.Z.Z.Z.Z.i.i.i.Z.Z.8..Xo.Z.Z.i.i._ i.i.|.` P XX        ",
"    / i.P.P.a.H H.H.<._.J.(.d.~ ~ F.d.d.:.d.:._.J._.J.<.oXa.P.i.8.Z.o.Z.Z.Z.Z.o.i.Z.Z._ i.Z.o.+.Z.i.Z.i._ i.i.` i.~ F.          ",
"    L ` ~ i.P.P.P.H H.d.:._.:.|.i.` :.:.d.:.d.d.d._.OXd.i.Z.-.~ o.Z.Z.Z.Z.Z.Z.i.i.u.P.i._ i.Z.-.i.i.i.i.i._ ~ F.` ` i.          ",
"    +XP ~ ~ /.P.P.}.H H H.<.d.i.` i.H.H H :.:.d.d.d.d._.i.8.@._ oXo.Z.i.o.Z.F.F.^ ` ^ i.i.Z.o.Z._ i.i._ i.~ F.~ i.P ^.          ",
"    @X[.~ _ ~ P.~ P.P.H H H.H.~ ` i.` G.#X_.$X$X$X<.d.d./.Z.Z.}.) i.u.F.^ _ ) %X&X@Xi.` _ i.Z.i.i._ i.~ F.~ F.~ F.[.XX          ",
"      [.` ~ i.~ i.P./.P.P.H H.` i.` *XX     =X-X;Xz.H.$X~ :.<.}.:X^ ) >X{.@X        N ` ` i.Z.i.i.i.i.` i.` ` P [.:X            ",
"      ,X*XP P ~ ~ P.P.P.H P.:.F.` [.8               8 N <Xs.d.[.  p.                  8 P F.o._ i.` _ / [.` i.1X2X8             ",
"        8 -X3XZ.P [.` ~ ~ P.a.~ *XN                       4X~ #X                        ;.J i.` P P X.5X6X;.                    ",
"                8 &X^.Z.P / / 7XXX                      6X*X^ F.                          @X7X].~.8XX                           ",
"                          2X9X6X                          0X6X                                                                  "
};
