/* XPM */
static const char *xpm_universal[] = {
/* columns rows colors chars-per-pixel */
"64 21 220 2",
"   c None",
"U. c #84869C",
"j. c #343454",
"i. c #BCDAFC",
"2X c #8C8E90",
"P. c #ACB2D4",
"J  c #6C77FC",
"*  c #A4A65C",
"+X c #7C8AE4",
":. c #B4B024",
"s. c #8492D4",
"8  c #D4D2E4",
"a. c #8CA6EC",
"[  c #7C7A34",
"+  c #ACAE54",
"v  c #ACB2E4",
"u. c #C4E2FC",
"x. c #1C1E28",
"-  c #B4AA1C",
"qX c #646274",
",. c #4C4F3C",
"!. c #545A34",
"O  c #949E2C",
"F  c #6C6A64",
"R. c #444757",
"eX c #94969C",
"e  c #C4C62C",
"8X c #BCBCBC",
"b. c #242626",
"X. c #545A44",
"}. c #5C6234",
"R  c #4C493D",
"f. c #646EB4",
":  c #BCB224",
"&  c #BCB6B4",
"%  c #E4E2E4",
"a  c #949E4C",
"Z  c #FCF624",
"3. c #94ABFC",
"%X c #747274",
"k. c #9C9EA4",
".. c #54513B",
"B. c #444777",
"1. c #2C2E2D",
"/. c #D4D624",
"7  c #E4E2F4",
">. c #5C5C39",
"2  c #C4C64C",
"$. c #8C9AFC",
"'. c #F4FEFC",
"tX c #A4A6A0",
"W. c #4C527C",
"F. c #F4FA74",
",X c #2C2E3C",
"=X c #545A6C",
"T  c #646432",
".X c #94923C",
":X c #444A94",
"). c #9496CC",
"f  c #C4CAEC",
" . c #5C5638",
"j  c #8C8EE4",
"Y. c #7C7A7C",
"5. c #9CB0FC",
"H  c #6477FC",
"+. c #8C94FC",
"M  c #DCDB21",
"E. c #4C528C",
"W  c #343636",
"z. c #645E34",
"L  c #646EEC",
"G  c #6471F9",
"Q. c #ACAEAC",
"P  c #747ECC",
"9X c #CCC6CC",
"g. c #545A90",
"]  c #3C3E3E",
"S. c #6C6634",
"r  c #DCD224",
"#  c #DCD6B4",
"t. c #A4B2FC",
"<. c #444634",
"&X c #646464",
"5  c #FCFAFC",
"^  c #7484FC",
"0. c #44463E",
"h  c #9C9EF4",
"<X c #8C8A8C",
"}  c #F4F624",
";X c #545AAC",
"t  c #E4DA24",
"oX c #5C6EC4",
"4X c #DCDCDE",
"i  c #F4F018",
"#X c #44464C",
"{  c #BCBA28",
"/  c #747EFC",
">  c #BCB418",
"A  c #FCFE24",
",  c #ACBE14",
"M. c #5C62AC",
"9  c #DCDFF7",
"=  c #9CA214",
"H. c #C4C6AC",
"y. c #C4DEFC",
"C. c #444965",
"3  c #E4D2A4",
"~. c #545639",
"E  c #4C4E4C",
"C  c #FCFE30",
">X c #3C3E74",
"x  c #545ACC",
"_. c #B4B6E4",
"D. c #F4F64C",
"3X c #C4C6C4",
"|  c #8C862C",
".  c #B4AAC4",
"b  c #D4D6A4",
"6  c #ECF2FC",
"0X c #545654",
"yX c #ECECEC",
"y  c #ECD624",
"K  c #6476EC",
"w  c #CCC420",
"^. c #948E2C",
"n. c #949EE4",
"h. c #4C4E71",
" X c #ACB224",
"@  c #D4CA94",
"c. c #DCDEAC",
"I  c #F4F7F9",
"rX c #A4A2A4",
"I. c #54566C",
"4. c #A4BAFC",
"*. c #343232",
"'  c #343544",
"(  c #6C7EFC",
"|. c #34323C",
"N  c #E4E224",
"O. c #3C3A32",
";  c #C4AA24",
"L. c #ACAAAF",
"_  c #B4CAEC",
"l. c #A49E34",
"e. c #6C622C",
"$X c #3C404C",
"q. c #74702E",
"&. c #9492EC",
"#. c #84A2FC",
"$  c #FCF6EC",
"!  c #7C94FC",
"U  c #4C4A14",
"X  c #C4C27C",
"-. c #3C3A3C",
"`. c #D4DCFC",
"J. c #8C8E14",
"OX c #B4CAFC",
"2. c #3C3A44",
"]. c #E4F5FC",
"r. c #444234",
"A. c #B4B2B4",
"@. c #8CAAFC",
"Q  c #7C8EFC",
"d  c #D4D6F9",
"g  c #ACB6F4",
"@X c #545CBC",
"S  c #444241",
"*X c #7C7224",
"XX c #CCEEFC",
";. c #8C8E2C",
"T. c #44424C",
"Z. c #E4E6E4",
"~  c #7C88FC",
"q  c #B4BA64",
"(. c #CCD22C",
"G. c #F4F6C4",
"z  c #5462E4",
"o  c #949624",
"u  c #ECDE24",
"%. c #8493FC",
"7X c #747678",
"9. c #E4E6F4",
"wX c #4C4A4C",
"8. c #8C9EFC",
"m. c #6C7ABC",
"6. c #9CB7F9",
"B  c #F4E624",
"n  c #A4A614",
"p  c #E4EA0C",
"-X c #BCC6FC",
")  c #5C6AEC",
"Y  c #9C9E2C",
"{. c #4C4A5C",
"l  c #6472DC",
"7. c #94A6FC",
"K. c #242A5C",
"m  c #D4D121",
"s  c #ECEEFC",
"`  c #2C292C",
"uX c #7C7E84",
"[. c #4C4A68",
"V  c #FCEE24",
"d. c #7482C4",
"1  c #B4C22C",
"o. c #54525C",
"5X c #CCCACC",
"=. c #3C423C",
"0  c #B4BAA4",
"N. c #4C5094",
"w. c #6C6A34",
"1X c #5C5A5C",
"6X c #848384",
"V. c #4C4A84",
"c  c #4C56AC",
"k  c #7482DC",
"<  c #B4B61C",
"v. c #D4D5D1",
"p. c #B4D2FC",
"D  c #64624C",
"4  c #F4DEBC",
/* pixels */
"                                                                                                                                ",
"                        . X o O + @ # $                                                                                         ",
"                  % & * = - ; : : > , < 1 2 3 4 $                                                     5 6 7 8 9 5               ",
"                0 q > w w e r r t t y u u u i p a                                     s d f g h j k l z x x x c v               ",
"            b n m r M N B V C Z C A C A A A : S D                                     F G H H H J J J H J H K L z P I           ",
"            U Y r A A C A C A C A A A C M T R R D                                     E W Q ! ~ Q ~ ~ ^ ^ ^ / ( ( G ) _         ",
"            ` W ' ] [ { } A A A A C Z |  . ...R X.                                    o.O.] +.@.#.$.$.+.%.%.~ %.~ ~ / G &.      ",
"            *.=.S S ] -.-...;.w A :.T T >. .,.R <.                                    1.S ] 2.3.4.5.6.3.3.7.7.8.8.%.$.8.! ~ 9.  ",
"            S ] S S S 0.0.R S S q.q.w.e. .r.S S W                                     ` ] S ] 2.t.y.y.u.i.p.6.a.s.d.f.g.h.j.k.  ",
"            S ] ] S S S 0.0.R R q.q.T >.>.M l.z.x.            c.v.                    b.O.-.S ] 2.n.m.M.N.B.V.B.B.C.C.C.C.' Z.  ",
"            A.W S =.S S S 0.R 0.T S.z...| } A A C D.F.G.  H.p J.K.L.            I 7 P.I.U.Y.-.T.R.c E.E.W.W.h.h.h.C.C.R.R.1.    ",
"            Q.*.S S ] S S S 0.S >.T !...] W ~.^./.A A A (.J.i ).  6._.9 d d 9 `.s       '.].1.=.R.g.W.E.h.h.h.[.C.{.R.{.T.'     ",
"              ` ] S =.S =.S S 0.R }.~.,.,.S 2.' |.O.e.{ T  X.X].  XXoX    6 `.OX3.+XoX@XN.B.] S C.h.h.h.[.[.C.{.R.R.#XT.$X%X    ",
"              *.] S S ] S S S 0.0.>...,.R R 0.W 2.&Xo.$X' *X=X+.-X! B.;X:X>Xj.,X|.W R O.] ] S r.C.W.[.h.C.C.{.R.T.R.#XT.W L.    ",
"              W ] ] S S ] S S S S >.,.R R 0.1.<X  6 Q.Y.1XS S B.;XB.W E 1X%X2XQ.3X4X4X1.S S ] ] R.[.C.{.R.R.T.R.R.T.T.T.W L.    ",
"                b.*.W ] ] S =.S S ~.,.R S b.5X        6X7X-.] ] *.-.4X                8X1.] S S R.{.R.R.R.R.R.#XT.#XS $X`       ",
"                  9X<XW *.W ] S =...R W 0X%           I 2XqX] wXeX                      wX] S ] C.R.R.#XT.R.T.#XT.=.T.=.,X      ",
"                        v.2X-.1.W <.1.eX                                                3Xb.-.S #XR.T.{.R.#XT.T.S T.T.W rX      ",
"                              4X<XwXv.                                                      -.] R.{.T.T.S T.] W W W 1.x.5       ",
"                                                                                            4X` -.W W W 1.-.&X6XtX3XyX          ",
"                                                                                              8XuXL.3XZ.                        "
};
