/* XPM */
static const char *xpm_redo[] = {
/* columns rows colors chars-per-pixel */
"16 16 2 1",
"  c None", 
". c #000080",
/* pixels */
"                ",
"                ",
"                ",
"                ",
"    ....        ",
"   .    ..   .  ",
"  .       . ..  ",
"  .        ...  ",
"  .       ....  ",
"   .     .....  ",
"   .            ",
"                ",
"                ",
"                ",
"                ",
"                "
};
