/* XPM */
static const char *xpm_step[] = {
/* columns rows colors chars-per-pixel */
"16 16 2 1",
". c Black",
"  c None",
/* pixels */
"                ",
"   .. ...       ",
"   .. ....      ",
"   .. .....     ",
"   .. .. ...    ",
"   .. ..  ...   ",
"   .. ..   ...  ",
"   .. ..    ... ",
"   .. ..   ...  ",
"   .. ..  ...   ",
"   .. .. ...    ",
"   .. .....     ",
"   .. ....      ",
"   .. ...       ",
"                ",
"                "
};
