/* XPM */
static const char *xpm_ruby[] = {
/* columns rows colors chars-per-pixel */
"16 16 13 1",
"X c #C02040",
"  c None",
"@ c #C04040",
"o c #E02040",
"O c #E04040",
"& c #FFFBF0",
"$ c #E08080",
"= c #800000",
"% c #C0C0C0",
"* c #A02000",
"# c #C02000",
". c #A02040",
"+ c #C00040",
/* pixels */
"                ",
"                ",
"           .    ",
"         XoO    ",
"       .X+++    ",
"      @o####    ",
"     $%X####    ",
"     &&O####    ",
"    $$ $#*#*    ",
"    @O$$X++#    ",
"    O+O$O+##    ",
"   =+#o$O###    ",
"   =**+OXX#*    ",
"                ",
"                ",
"                "
};
