/* XPM */
static const char *xpm_agent[] = {
/* columns rows colors chars-per-pixel */
"20 20 108 2",
"<  c Black",
"X  c #CACACA",
"L  c #0F0F0F",
">  c #D9D9D9",
"@. c #1E1E1E",
"'  c #E8E8E8",
"v  c #5A5A5A",
"s  c #878787",
"}  c #080808",
".  c #D2D2D2",
"F  c #171717",
"3  c #353535",
"   c None",
"=. c #9E9E9E",
"c  c #010101",
"Q  c #CBCBCB",
":. c #101010",
"N  c #1F1F1F",
"_  c #2E2E2E",
"*  c #3D3D3D",
"e  c #888888",
"#. c #979797",
"y  c #090909",
"6  c #181818",
"Z  c #E2E2E2",
"d  c #818181",
"-  c #9F9F9F",
"C  c #AEAEAE",
"t  c #020202",
"@  c #CCCCCC",
"^  c #111111",
"#  c #DBDBDB",
"r  c #202020",
"!  c #EAEAEA",
"U  c #2F2F2F",
"+. c #4D4D4D",
"a  c #6B6B6B",
"w  c #7A7A7A",
"g  c #A7A7A7",
"7  c #0A0A0A",
"-. c #D4D4D4",
"J  c #191919",
"K  c #282828",
"R  c #555555",
"8  c #A0A0A0",
"4  c #AFAFAF",
"i  c #030303",
"O  c #CDCDCD",
"j  c #121212",
"o  c #DCDCDC",
"/  c #212121",
"h  c #5D5D5D",
"%. c #7B7B7B",
"&  c #999999",
"(  c #0B0B0B",
")  c #1A1A1A",
"1  c #292929",
"V  c #747474",
";. c #838383",
"B  c #040404",
"x  c #131313",
"$. c #DDDDDD",
"5  c #222222",
"G  c #4F4F4F",
":  c #6D6D6D",
"X. c #7C7C7C",
"`  c #9A9A9A",
"z  c #0C0C0C",
" . c #D6D6D6",
"{  c #1B1B1B",
"I  c #2A2A2A",
";  c #393939",
"W  c #484848",
"M  c #A2A2A2",
"b  c #B1B1B1",
"u  c #050505",
".. c #DEDEDE",
"A  c #5F5F5F",
"o. c #6E6E6E",
"*. c #8C8C8C",
"T  c #B9B9B9",
"[  c #0D0D0D",
"]  c #D7D7D7",
"k  c #1C1C1C",
"P  c #2B2B2B",
"H  c #676767",
"S  c #060606",
"m  c #D0D0D0",
"E  c #151515",
"n  c #DFDFDF",
"p  c #242424",
",  c #424242",
"q  c #0E0E0E",
"+  c #D8D8D8",
"~  c #1D1D1D",
"0  c #2C2C2C",
"=  c #C2C2C2",
"l  c #070707",
"$  c #D1D1D1",
"%  c #E0E0E0",
"D  c #252525",
"2  c #343434",
"Y  c #434343",
"&. c #525252",
"f  c #616161",
"9  c #9D9D9D",
"|  c #ACACAC",
"O. c #BBBBBB",
/* pixels */
"          . X o O + @ # $               ",
"          % & * = - ; : >               ",
"          @ , < 1 2 < 3 #               ",
"          4 5 6 < 7 < < 8               ",
"          9 0 7 < < q < w               ",
"          e r t y u i < p a s d f g     ",
"          h j k q l < z t < x c v b     ",
"    n m M N q 7 i < u B < x V C         ",
"    Z A B 7 < < c S D F < G             ",
"    H J K y c < L P I U I Y             ",
"    T O = R < E l I r N N W             ",
"      Q ! X ~ < ^ 5 K / ( k -           ",
"          m V 7 J ) L < z i S _ `       ",
"          ' ] D [ i { < } E < < { |     ",
"             ...X.u < i < c l < < o.    ",
"            ..O.+.( < u ( < l l u @.#.  ",
"          $.%.( i B B B u B i i < k &.  ",
"         .%.6 < < < < < < < < < 7 [ p *.",
"      =.f p B t l S u u S S u B x } y A ",
"-.;.N c x { F L x :.q q :.:.L [ :.[ ^ h "
};
