/* XPM */
static const char *xpm_new[] = {
"15 15 5 1",
" 	c #FFFF00",
".	c None",
"X	c #C0C0C0",
"o	c #000000",
"O	c #FFFFFF",
" ..X ooXooo....",
"X .X..X OOoo...",
".X X X OOOoOo..",
". X OXXXXOoOOo.",
"XXXo  OOOOooooo",
"...XOOXooOOOOOo",
"X..X OOOOOOOOOo",
"...XOoooooooOOo",
"...oOOOOOOOOOOo",
"...oOoooooooOOo",
"...oOOOOOOOOOOo",
"...oOoooooooOOo",
"...oOOOOOOOOOOo",
"...oOOOOOOOOOOo",
"...oooooooooooo"};
