# Blender3D v245 OBJ File: rfoot.blend
# www.blender3d.org
mtllib rfoot.mtl
o foot_Sphere.003
v 0.549987 0.550013 0.000010
v 0.550010 -0.549987 0.112636
v 0.549996 0.550013 -0.499990
v 0.550022 -0.549987 -0.499990
v 0.442733 0.275011 0.112634
v 0.442739 0.000011 0.112634
v 0.442746 -0.274989 0.112634
v 0.442744 0.275011 -0.499993
v 0.442751 0.000011 -0.499993
v 0.442757 -0.274989 -0.499993
v 0.549992 0.275010 0.112636
v 0.549999 0.000010 0.112636
v 0.550005 -0.274990 0.112636
v 0.550004 0.275010 -0.499990
v 0.550010 0.000010 -0.499990
v 0.550016 -0.274990 -0.499990
v 0.504018 0.666012 -0.002946
v 0.385753 0.843002 -0.002947
v 0.208759 0.961261 -0.002950
v -0.000018 1.002786 -0.002952
v -0.208795 0.961254 -0.002954
v -0.385787 0.842987 -0.002956
v -0.504048 0.665993 -0.002957
v -0.504048 0.650101 0.076939
v -0.385787 0.813624 0.144672
v -0.208795 0.922888 0.189931
v -0.000018 0.961260 0.205825
v 0.208759 0.922896 0.189935
v 0.385753 0.813639 0.144680
v 0.504017 0.650120 0.076950
v 0.545548 0.457235 -0.002945
v -0.545574 0.457215 -0.002957
v 0.504016 0.757881 -0.002946
v 0.385751 0.934872 -0.002947
v 0.208758 1.053131 -0.002950
v -0.000020 1.094655 -0.002952
v -0.208797 1.053123 -0.002954
v -0.385788 0.934857 -0.002956
v -0.504049 0.757862 -0.002957
v -0.504049 0.741971 0.076939
v -0.385788 0.905494 0.144672
v -0.208797 1.014758 0.189931
v -0.000020 1.053129 0.205825
v 0.208758 1.014766 0.189935
v 0.385751 0.905508 0.144680
v 0.504016 0.741990 0.076950
v 0.545546 0.549105 -0.002945
v -0.545576 0.549084 -0.002957
v 0.545558 0.460340 -0.006322
v 0.504027 0.669116 -0.006323
v 0.385763 0.846106 -0.006324
v 0.208769 0.964366 -0.006327
v -0.000008 1.005890 -0.006329
v -0.208785 0.964358 -0.006331
v -0.385777 0.846092 -0.006333
v -0.504038 0.669097 -0.006334
v -0.504038 0.653206 0.073562
v -0.385777 0.816729 0.141295
v -0.208785 0.925993 0.186554
v -0.000008 0.964364 0.202448
v 0.208769 0.926001 0.186559
v 0.385763 0.816743 0.141304
v 0.504027 0.653225 0.073573
v 0.504028 0.607968 0.141305
v 0.385764 0.733120 0.266456
v 0.208770 0.816742 0.350079
v -0.000008 0.846103 0.379441
v -0.208784 0.816734 0.350074
v -0.385776 0.733105 0.266448
v -0.504037 0.607949 0.141294
v -0.504037 0.540218 0.186551
v -0.385775 0.607954 0.350072
v -0.208783 0.653215 0.459335
v -0.000006 0.669112 0.497704
v 0.208771 0.653223 0.459340
v 0.385765 0.607968 0.350081
v 0.504028 0.540236 0.186563
v 0.504029 0.460341 0.202455
v 0.385766 0.460341 0.379446
v 0.208773 0.460339 0.497707
v -0.000004 0.460335 0.539233
v -0.208781 0.460331 0.497702
v -0.385774 0.460326 0.379438
v -0.504036 0.460322 0.202444
v -0.545564 0.460319 -0.006334
v -0.388931 0.938900 -0.000007
v -0.210501 1.058129 -0.000004
v -0.000026 1.100000 0.000000
v 0.210451 1.058139 0.000004
v 0.388887 0.938918 0.000007
v 0.508116 0.760488 0.000009
v 0.549987 0.550013 0.000010
v -0.550013 0.549987 -0.000010
v -0.508151 0.760464 -0.000009
v -0.549990 -0.550013 0.112616
v -0.508119 -0.760488 0.112617
v -0.388890 -0.938918 0.112619
v -0.210454 -1.058139 0.112622
v 0.000026 -1.100000 -0.000000
v 0.210498 -1.058129 0.112630
v 0.388928 -0.938900 0.112633
v 0.508149 -0.760464 0.112635
v 0.550010 -0.549987 0.112636
v -0.388922 0.938900 -0.500007
v -0.210492 1.058129 -0.500004
v -0.000017 1.100000 -0.500000
v 0.210460 1.058139 -0.499996
v 0.388896 0.938918 -0.499993
v 0.508125 0.760488 -0.499991
v 0.549996 0.550013 -0.499990
v -0.550004 0.549988 -0.500010
v -0.508142 0.760464 -0.500009
v -0.549978 -0.550013 -0.500010
v -0.508107 -0.760488 -0.500009
v -0.388878 -0.938918 -0.500007
v -0.210442 -1.058139 -0.500004
v 0.000035 -1.100000 -0.500000
v 0.210510 -1.058129 -0.499996
v 0.388940 -0.938900 -0.499993
v 0.508160 -0.760464 -0.499991
v 0.550022 -0.549987 -0.499990
v 0.442733 0.275011 0.112634
v 0.442739 0.000011 0.112634
v 0.442746 -0.274989 0.112634
v -0.550009 0.274987 0.112616
v -0.550003 -0.000013 0.112616
v -0.549996 -0.275013 0.112616
v 0.442744 0.275011 -0.499993
v 0.442751 0.000011 -0.499993
v 0.442757 -0.274989 -0.499993
v -0.549997 0.274988 -0.500010
v -0.549991 -0.000012 -0.500010
v -0.549985 -0.275012 -0.500010
vn 0.707083 0.267983 0.654347
vn 0.000000 0.193121 0.981170
vn 0.632649 0.149571 0.759819
vn 0.707114 0.000000 -0.707083
vn 0.705161 0.000000 -0.709037
vn 0.000000 0.000000 -1.000000
vn 0.707083 0.000000 0.707114
vn 0.000000 0.000000 1.000000
vn 0.737632 0.308084 -0.600787
vn 0.855495 0.218390 0.469466
vn 0.867214 0.082278 -0.491043
vn -0.737632 0.308054 -0.600787
vn -0.867214 0.082247 -0.491043
vn -0.855495 0.218360 0.469466
vn -0.578082 0.580157 -0.573748
vn -0.640522 0.440809 0.628773
vn -0.317484 0.768242 -0.555834
vn -0.344890 0.610492 0.712943
vn 0.000000 0.837031 -0.547105
vn 0.000000 0.673818 0.738853
vn 0.317454 0.768273 -0.555834
vn 0.345500 0.612079 0.711295
vn 0.578051 0.580187 -0.573748
vn 0.641377 0.442030 0.627064
vn 0.854732 0.000000 -0.519028
vn -0.854732 0.000000 -0.519028
vn -0.721366 0.000000 0.692526
vn 0.721366 0.000000 0.692526
vn 0.375744 0.000000 0.926695
vn 0.162420 0.000000 0.986694
vn -0.003723 0.000000 0.999969
vn -0.166173 0.000000 0.986084
vn -0.375774 0.000000 0.926695
vn 0.703146 0.000000 0.710990
vn 0.705130 0.000000 -0.709037
vn -0.296548 0.715903 -0.632069
vn 0.000000 0.774895 -0.632069
vn 0.296518 0.715903 -0.632038
vn -0.295907 0.714316 0.634144
vn 0.295175 0.712729 0.636250
vn 0.000000 0.774895 0.632069
vn -0.296487 -0.715903 -0.632069
vn 0.296548 -0.715903 -0.632038
vn 0.000000 -0.774895 -0.632069
vn -0.234535 -0.739982 0.630390
vn 0.000000 -0.992706 0.120487
vn 0.234535 -0.739982 0.630390
vn 0.755486 0.142125 0.639546
vn -0.707114 0.000000 0.707083
vn -0.740379 -0.072939 0.668172
vn 0.791162 0.069613 0.607593
vn 0.705130 0.000000 0.709067
vn -0.705161 0.000000 0.709037
vn 0.705283 0.007080 0.708853
vn -0.632710 0.149541 0.759789
vn 0.732627 0.066836 0.677297
vn -0.663869 0.206214 0.718833
vn -0.709037 0.000000 -0.705130
vn 0.757195 0.142430 -0.637410
vn -0.743858 -0.072909 -0.664327
vn 0.791162 0.069613 -0.607593
vn -0.703146 0.000000 -0.710990
vn -0.707083 0.000000 -0.707114
vn 0.758904 -0.142735 -0.635334
vn -0.742210 0.073061 -0.666158
vn 0.791162 -0.069582 -0.607593
vn -0.547929 -0.547929 0.632038
vn 0.547929 -0.547929 0.632069
vn -0.714316 -0.295877 0.634144
vn 0.712729 -0.295206 0.636250
vn -0.547899 -0.547929 -0.632069
vn 0.547960 -0.547929 -0.632038
vn -0.715903 -0.296548 -0.632069
vn 0.715934 -0.296518 -0.632038
vn 0.712729 0.295236 0.636250
vn -0.712760 0.295206 0.636219
vn 0.715903 0.296548 -0.632038
vn -0.715903 0.296518 -0.632069
vn -0.545518 0.545488 0.636250
vn 0.545488 0.545518 0.636250
vn -0.547929 0.547929 -0.632069
vn 0.547929 0.547929 -0.632038
vn -0.798395 -0.584124 0.146123
vn -0.913846 0.375103 0.155370
vn -0.921415 0.381085 0.075777
vn 0.913846 0.375103 0.155370
vn 0.798395 -0.584094 0.146123
vn 0.921415 0.381085 0.075777
vn 0.913846 0.287088 0.287088
vn -0.913846 0.287088 0.287088
vn -0.913846 0.155370 0.375103
vn 0.913846 0.155370 0.375103
vn 0.739189 -0.598529 0.308725
vn -0.739189 -0.598559 0.308725
vn 0.318094 -0.553362 0.769768
vn 0.000000 -0.547105 0.837062
vn -0.318094 -0.553392 0.769768
vn 0.579241 -0.571368 0.581347
vn -0.579211 -0.571398 0.581347
vn -0.696188 0.274697 0.663198
vn -0.376049 0.354564 0.856044
vn 0.000000 0.382672 0.923856
vn 0.376019 0.354595 0.856044
vn 0.696158 0.274697 0.663198
vn 0.696158 0.507614 0.507584
vn 0.376019 0.655202 0.655202
vn 0.000000 0.707083 0.707083
vn -0.376049 0.655202 0.655171
vn -0.696188 0.507584 0.507584
vn -0.696188 0.663198 0.274697
vn -0.376049 0.856044 0.354564
vn 0.000000 0.923856 0.382672
vn 0.376019 0.856075 0.354564
vn 0.696158 0.663228 0.274697
vn 0.700705 0.699698 0.139164
vn 0.376812 0.908475 0.180670
vn 0.000000 0.980773 0.195074
vn -0.376843 0.908444 0.180670
vn -0.700736 0.699667 0.139164
usemtl LightBlue
s 1
f 1//1 5//2 11//3
f 3//4 14//5 8//6
f 4//4 10//6 16//4
f 2//7 13//7 7//8
f 33//9 46//10 47//11
f 39//12 48//13 40//14
f 38//15 39//12 40//14
f 38//15 40//14 41//16
f 37//17 38//15 41//16
f 37//17 41//16 42//18
f 36//19 37//17 42//18
f 36//19 42//18 43//20
f 35//21 36//19 43//20
f 35//21 43//20 44//22
f 34//23 35//21 44//22
f 34//23 44//22 45//24
f 33//9 34//23 46//10
f 34//23 45//24 46//10
f 17//6 33//9 47//11
f 17//6 47//11 31//25
f 32//26 48//13 23//6
f 48//13 39//12 23//6
f 24//27 40//14 48//13
f 24//27 48//13 32//26
f 31//25 47//11 30//28
f 47//11 46//10 30//28
f 30//28 46//10 29//29
f 46//10 45//24 29//29
f 29//29 45//24 28//30
f 45//24 44//22 28//30
f 28//30 44//22 27//31
f 44//22 43//20 27//31
f 27//31 43//20 42//18
f 27//31 42//18 26//32
f 26//32 42//18 41//16
f 26//32 41//16 25//33
f 25//33 41//16 40//14
f 25//33 40//14 24//27
f 23//6 39//12 22//6
f 39//12 38//15 22//6
f 22//6 38//15 21//6
f 38//15 37//17 21//6
f 21//6 37//17 20//6
f 37//17 36//19 20//6
f 20//6 36//19 35//21
f 20//6 35//21 19//6
f 19//6 35//21 34//23
f 19//6 34//23 18//6
f 33//9 17//6 18//6
f 33//9 18//6 34//23
f 6//8 7//8 12//34
f 7//8 13//7 12//34
f 5//2 6//8 11//3
f 6//8 12//34 11//3
f 9//6 15//35 10//6
f 15//35 16//4 10//6
f 8//6 14//5 9//6
f 14//5 15//35 9//6
f 2//7 4//4 16//4
f 2//7 16//4 13//7
f 12//34 13//7 16//4
f 12//34 16//4 15//35
f 11//3 12//34 15//35
f 11//3 15//35 14//5
f 1//1 11//3 14//5
f 1//1 14//5 3//4
usemtl Grey.002
f 105//36 106//37 107//38
f 87//39 89//40 88//41
f 116//42 118//43 117//44
f 98//45 99//46 100//47
f 124//48 127//49 95//50
f 124//48 95//50 103//51
f 123//52 126//53 124//48
f 126//53 127//49 124//48
f 122//54 125//55 123//52
f 125//55 126//53 123//52
f 92//56 93//57 122//54
f 93//57 125//55 122//54
f 133//58 130//59 113//60
f 130//59 121//61 113//60
f 132//62 129//35 130//59
f 132//62 130//59 133//58
f 131//63 128//64 129//35
f 131//63 129//35 132//62
f 111//65 110//66 128//64
f 111//65 128//64 131//63
f 131//63 125//55 93//57
f 131//63 93//57 111//65
f 132//62 126//53 125//55
f 132//62 125//55 131//63
f 133//58 127//49 126//53
f 133//58 126//53 132//62
f 113//60 95//50 127//49
f 113//60 127//49 133//58
f 122//54 128//64 92//56
f 128//64 110//66 92//56
f 123//52 129//35 128//64
f 123//52 128//64 122//54
f 124//48 130//59 129//35
f 124//48 129//35 123//52
f 103//51 121//61 124//48
f 121//61 130//59 124//48
f 97//67 98//45 100//47
f 97//67 100//47 101//68
f 96//69 97//67 101//68
f 96//69 101//68 102//70
f 115//71 119//72 118//43
f 115//71 118//43 116//42
f 114//73 120//74 115//71
f 120//74 119//72 115//71
f 95//50 96//69 102//70
f 95//50 102//70 103//51
f 113//60 121//61 120//74
f 113//60 120//74 114//73
f 91//75 94//76 93//57
f 91//75 93//57 92//56
f 109//77 110//66 111//65
f 109//77 111//65 112//78
f 86//79 94//76 90//80
f 94//76 91//75 90//80
f 104//81 108//82 112//78
f 108//82 109//77 112//78
f 86//79 90//80 89//40
f 86//79 89//40 87//39
f 104//81 105//36 107//38
f 104//81 107//38 108//82
f 102//70 120//74 121//61
f 102//70 121//61 103//51
f 101//68 119//72 102//70
f 119//72 120//74 102//70
f 100//47 118//43 101//68
f 118//43 119//72 101//68
f 99//46 117//44 118//43
f 99//46 118//43 100//47
f 98//45 116//42 99//46
f 116//42 117//44 99//46
f 97//67 115//71 98//45
f 115//71 116//42 98//45
f 96//69 114//73 97//67
f 114//73 115//71 97//67
f 95//50 113//60 96//69
f 113//60 114//73 96//69
f 104//81 112//78 94//76
f 104//81 94//76 86//79
f 94//76 112//78 111//65
f 94//76 111//65 93//57
f 92//56 110//66 109//77
f 92//56 109//77 91//75
f 91//75 109//77 108//82
f 91//75 108//82 90//80
f 90//80 108//82 107//38
f 90//80 107//38 89//40
f 89//40 107//38 106//37
f 89//40 106//37 88//41
f 88//41 106//37 105//36
f 88//41 105//36 87//39
f 87//39 105//36 104//81
f 87//39 104//81 86//79
usemtl Grey
f 85//83 57//84 56//85
f 63//86 49//87 50//88
f 64//89 49//87 63//86
f 85//83 70//90 57//84
f 85//83 71//91 70//90
f 77//92 49//87 64//89
f 78//93 49//87 77//92
f 85//83 84//94 71//91
f 80//95 81//96 82//97
f 79//98 80//95 82//97
f 79//98 82//97 83//99
f 78//93 79//98 83//99
f 78//93 83//99 84//94
f 49//87 78//93 84//94
f 49//87 84//94 85//83
f 71//91 84//94 83//99
f 71//91 83//99 72//100
f 72//100 83//99 82//97
f 72//100 82//97 73//101
f 73//101 82//97 81//96
f 73//101 81//96 74//102
f 74//102 81//96 80//95
f 74//102 80//95 75//103
f 75//103 80//95 79//98
f 75//103 79//98 76//104
f 76//104 79//98 77//92
f 79//98 78//93 77//92
f 65//105 76//104 64//89
f 76//104 77//92 64//89
f 66//106 75//103 76//104
f 66//106 76//104 65//105
f 67//107 74//102 75//103
f 67//107 75//103 66//106
f 68//108 73//101 74//102
f 68//108 74//102 67//107
f 69//109 72//100 73//101
f 69//109 73//101 68//108
f 70//90 71//91 72//100
f 70//90 72//100 69//109
f 57//84 70//90 58//110
f 70//90 69//109 58//110
f 58//110 69//109 59//111
f 69//109 68//108 59//111
f 59//111 68//108 60//112
f 68//108 67//107 60//112
f 60//112 67//107 61//113
f 67//107 66//106 61//113
f 61//113 66//106 65//105
f 61//113 65//105 62//114
f 62//114 65//105 64//89
f 62//114 64//89 63//86
f 51//115 62//114 63//86
f 51//115 63//86 50//88
f 52//116 61//113 51//115
f 61//113 62//114 51//115
f 53//117 60//112 52//116
f 60//112 61//113 52//116
f 54//118 59//111 53//117
f 59//111 60//112 53//117
f 55//119 58//110 54//118
f 58//110 59//111 54//118
f 56//85 57//84 55//119
f 57//84 58//110 55//119
