/* XPM */
static const char *xpm_slider[] = {
/* columns rows colors chars-per-pixel */
"64 30 223 2",
"   c None",
"A  c #5C5EF4",
"[  c #3C3624",
"Q. c #909AD8",
"_. c #4C4A94",
";  c #DCCE9C",
"k  c #A49A2C",
"w  c #ECEF2F",
"|  c #ACA6AC",
"&  c #D4AE64",
"oX c #3C3C48",
"(. c #2C265C",
"d  c #141324",
"r  c #F4F724",
".  c #F4EAFC",
"=  c #FCF2EC",
"&X c #2C296B",
"5. c #6466FC",
"I  c #443B22",
"K  c #1C1B1B",
"tX c #342E54",
"9X c #B4AEAC",
"q. c #ECF254",
"Y. c #9CC2FC",
"%. c #4C4624",
"q  c #DCEA14",
"S. c #E4EEF8",
"m. c #94B4FC",
"J  c #BCBCB4",
"2. c #8CA6FC",
"C. c #1C1E34",
"~. c #ECF6EC",
"8. c #443E44",
"^  c #8495FC",
",  c #CCCE24",
"y. c #A4CAFC",
"S  c #7C84F8",
"6. c #343A9C",
"7X c #242634",
"R  c #C4BEA4",
"@. c #4C56FC",
"x  c #2C2B25",
"'. c #F4FEF8",
"i  c #ECF27C",
"g. c #040204",
"e. c #F4F2D4",
"#  c #9C940C",
"M. c #5C66E4",
"6X c #7C7A79",
"`  c #343324",
"P  c #2C2B37",
"V  c #2C2526",
"rX c #2C2E46",
"4  c #D4CA14",
"XX c #544E4F",
"4. c #8F9EFC",
"'  c #343634",
"Z  c #748AE4",
"d. c #A4A224",
"]  c #3C3B24",
"=X c #6C6AB4",
":X c #F4ECE4",
"t. c #8CB4FC",
"H  c #DCEEF8",
"b  c #ACABA9",
"uX c #848284",
"+. c #6C7CFC",
"u. c #A2BBFC",
"u  c #FCFAF0",
"&. c #444324",
"!  c #505EFC",
"6  c #DCDE4C",
"|. c #5C565F",
"i. c #A4B2FC",
"O  c #FCFAFC",
"n. c #94BCFC",
"<. c #8CAEFC",
"X  c #F4E6EC",
".. c #7484FC",
"$  c #AC9E14",
"2X c #34335A",
"w. c #F4EE8C",
"T  c #7C7624",
"+X c #5C629C",
"W  c #6C73FC",
"-  c #F0F2F8",
"9. c #545624",
"o. c #7C8CFC",
"O. c #747EFC",
"e  c #FCFE24",
"Z. c #847E24",
"E. c #34367C",
"G. c #C4DEFC",
"wX c #949294",
"g  c #E4E4E0",
"I. c #ACDAFC",
"$. c #8C90BC",
"t  c #C4C224",
"z  c #242526",
"N. c #7C826C",
">. c #F4FAD4",
";X c #848EEC",
"a  c #FCFE36",
"j  c #7C8A0C",
".X c #4C4B51",
",X c #747478",
"P. c #B4E2FC",
")  c #E4E4F4",
"]. c #A4C6FC",
">  c #C4B614",
"^. c #747A94",
"-. c #9C9C24",
"8  c #ECECEC",
"H. c #DCFCFC",
"0. c #FCFE50",
"2  c #E0D424",
"h  c #A4A294",
"x. c #B4DCFC",
"D  c #94A4F8",
"*  c #E0DECC",
"`. c #9CA6D4",
" X c #545359",
",. c #8C96FC",
"4X c #7C8EBC",
">X c #CCCECC",
"a. c #545664",
"M  c #9C9624",
"o  c #F4F7F6",
"+  c #DCDEAC",
"-X c #CCDAFC",
"1  c #E0CE22",
"f. c #FCFE64",
"#. c #6C7EEC",
" . c #BCBEFC",
"f  c #0C0C0F",
"B. c #A4A2A8",
"aX c #7C767C",
"5X c #545674",
"Q  c #5C65FC",
"5  c #D4C614",
"<  c #D4CC28",
"C  c #D4D6CC",
"%  c #C4B63C",
"s. c #5C5B5C",
"y  c #141408",
"U. c #ACC5FC",
"J. c #E4FEFC",
"pX c #706E70",
"eX c #343549",
"z. c #BCDEFC",
"B  c #3C3D39",
"c. c #B4D0FC",
"h. c #D4D6DC",
"c  c #141415",
"@X c #2C2A58",
"p. c #9CA6FC",
"E  c #646DFC",
"_  c #ACA4A0",
"X. c #7C94FC",
"D. c #647EBC",
"W. c #5462BC",
"l. c #C4E6FC",
"n  c #140E14",
"F  c #ACBCFC",
"0X c #DCDEE0",
"$X c #343565",
"{. c #B4B2B4",
"3  c #CCD214",
"3. c #849CFC",
"A. c #BCBC2C",
"l  c #1C1C24",
"k. c #CCEEFC",
"8X c #1C1614",
"). c #2F2E6C",
"7. c #242A2C",
"@  c #B4AE34",
"1X c #645A64",
"0  c #D4DA14",
"qX c #BCBDBF",
"j. c #C1D3FC",
"T. c #343888",
"V. c #242A34",
"<X c #6C686C",
"*. c #F4F234",
";. c #BCC254",
"(  c #CCC2FC",
"{  c #4F4B24",
"N  c #F4EC24",
"3X c #5C5EAC",
"K. c #CCE8FC",
"b. c #B0CAFC",
"s  c #5C5A24",
":  c #C4BE24",
"1. c #94ACFC",
"R. c #9C9C9C",
"~  c #5462F8",
"m  c #241E24",
"L. c #CCE2FC",
"=. c #D4DA34",
"}. c #4C4A5C",
"F. c #9CAEE4",
"Y  c #D4D424",
"v. c #ACD0FC",
"}  c #040614",
"!. c #D4EDFC",
"yX c #C4C2CC",
"/. c #242448",
"OX c #6466BC",
"iX c #2C324C",
"7  c #E4D664",
"v  c #FCFEE4",
"#X c #2C3258",
"G  c #CCD6F4",
"/  c #9CABF7",
"[. c #A49EA1",
"L  c #342E26",
"9  c #DCCE84",
"%X c #2C3264",
"*X c #444294",
":. c #ECF6B4",
"U  c #6C6424",
"p  c #F4FA14",
"r. c #ECE2F8",
/* pixels */
"                    . X o   O O                                                                                                 ",
"                  + @ # # $ @ % & * = = O O O                                                                                   ",
"            - ; : > , < 1 1 1 2 1 3 4 5 < 6 7 O                                                                                 ",
"      O 8 9 0 q w e r e e e e e e e e e e t y =                                                                                 ",
"    u i p e e e e e e a e e e e e e e e s d f g                                                                                 ",
"    h j : r e e e a e e e e a e e e k l z x c *                                                   v       o O O                 ",
"    b n m l x s M : N e a e e e 2 B z x V x n C                                         Z A S D F G H v                         ",
"    J K x x L L x x P I U M Y T z x L x x z c R                                     v D E W W E Q Q ! ~ W ^ / ( )               ",
"    _ c x x P x ` ' ] ] [ I { I [ ` x l d d } |                                   v  ...^ X.o...S ..O.+.W E Q ~ ! @.A #.$.      ",
"      c x x x x L ` ` [ I I %.&.L P l *.a =.-.;.:.>.                              G ,.<.1.2.2.3.4.^ ^ ^ ..o...+.W W E 5.6.      ",
"      K z 7.x x x x ' ` ' B 8.&.L V 9.e e a 0.a e 0.r w q.w.e.v                 r.t.y.y.F u.F i.i./ p.4.3.3.^ o.S ..+.W a.      ",
"      s.m z V x P x x x L ` ] ] x x x &.U d.2 r e e a f.0.0.g.h.            v o j.k.l.z.x.x.c.v.v.b.F u.n.m.<.2.3.X.^ M.N.      ",
"      B.K z 7.V x x x x ` x ' ] x V.z z z l C.L { Z.A.N e k  .- S.r.r.8 v     $.D.F.G.H.J.H.H.K.L.P.I.v.c.U.Y.n.m.1.<.T.R.      ",
"      _ c V z z 7.x x x x L x ' x x V z z z z x z l c z %.I C.E.W.Q.c.!.- S.~.^./.(.(.)._.D.`.j.J.'.o S.K.G c.v.].u.u.n [.      ",
"      {.c 7.V z V 7.x x x x x ` x z z x z K z }.|. X.X8.P l B s.XXoXP /.E.OXi.+X@X#X$X$X%X$X&X&X&X*X=XQ.b.!.J.H.l.-X;Xg.        ",
"      :Xy z x 7.z V 7.P x x x ` V x z z K s.  - >X[.,X X X X|. X.X X|.<X1X.XB P 2X#X$X#X$X$X$X$X%XE.).&X&X(.T.3X4XU.5Xy         ",
"        6Xf K m z z V 7.x x x ` 7Xz z 8X.X              8 9X0X  :XqXwX<X.X}.|.eXrXrXtX#XtX#X2X$X$X2X$X$X$X$X$X).&X(.l K         ",
"      O u yXuXB c c K z z V x x V z l ,X                      O           0XqXeXP rXrXrXiXtX#X2X#X2X#X2X#X2X%X2X2X2XK R.        ",
"                O qX6XB d c l z K x -   o                                     oX7XrXP rXrXrXtXrXtX#X2X#X2X2X2X#X%X2Xy B.        ",
"                        u J 6X'  X                                            P P P P P P P P P rXrXrXiXrXrXrXiXtXrXc B.        ",
"            O o O     O o                                                     l 7XP P P P P rXP P P P rXrXrX@XrXrXx f           ",
"                        O                                                     n V.V P V.P V.V P P P P P P P P P rXz c           ",
"                                                                              c P V.V 7XP P P V.P 7XrXP P P P P P K [.          ",
"                                                                              f z 7XP P V.V 7XP V.P V P 7XP P 7XP c [.          ",
"                                                                              d z V V.z V V.P z P 7XV.P P 7XP P z f             ",
"                                                                              x K K l z V.V z P 7Xx V.V 7.P z 7Xz s.            ",
"                                                                            O   8 {.,XP K l l z z V V.V V.V V.P 8XR.            ",
"                                                                                        g b pXP l K l z z 7Xx z f               ",
"                                                                                                X b pXP K K l z d               ",
"                                                                                  O O o O O O           ) {.aXx 9X              "
};
