# Blender3D v249 OBJ File: 
# www.blender3d.org
mtllib rightgoal.mtl
o rightgoal
v 0.490346 -0.000000 -0.062326
v 0.494467 -0.000000 -0.047393
v 0.497519 -0.000000 -0.030383
v 0.499385 -0.000000 -0.011947
v 0.499994 0.000000 0.007207
v 0.499322 0.000000 0.026343
v 0.497394 0.000000 0.044726
v 0.494286 0.000000 0.061645
v 0.490116 0.000000 0.076457
v 0.485044 0.000000 0.088589
v 0.479266 0.000000 0.097575
v 0.473004 0.000000 0.103068
v 0.466498 0.000000 0.104861
v 0.459998 0.000000 0.102880
v 0.453754 0.000000 0.097207
v 0.448007 0.000000 0.088054
v 0.442976 0.000000 0.075777
v 0.438855 0.000000 0.060848
v 0.435803 0.000000 0.043837
v 0.433937 0.000000 0.025401
v 0.433328 0.000000 0.006247
v 0.434000 -0.000000 -0.012889
v 0.435928 -0.000000 -0.031272
v 0.439036 -0.000000 -0.048194
v 0.443207 -0.000000 -0.063006
v 0.448278 -0.000000 -0.075135
v 0.454056 -0.000000 -0.084120
v 0.460318 -0.000000 -0.089614
v 0.466824 -0.000000 -0.091407
v 0.473324 -0.000000 -0.089428
v 0.479568 -0.000000 -0.083752
v 0.485316 -0.000000 -0.074602
v 0.490346 0.997179 -0.062326
v 0.494467 0.997179 -0.047393
v 0.497519 0.997179 -0.030383
v 0.499385 0.997179 -0.011947
v 0.499994 0.997179 0.007207
v 0.499322 0.997179 0.026343
v 0.497394 0.997179 0.044726
v 0.494286 0.997179 0.061645
v 0.490116 0.997179 0.076457
v 0.485044 0.997179 0.088589
v 0.479266 0.997179 0.097575
v 0.473004 0.997179 0.103068
v 0.466498 0.997179 0.104861
v 0.459998 0.997179 0.102880
v 0.453754 0.997179 0.097207
v 0.448007 0.997179 0.088057
v 0.442976 0.997179 0.075777
v 0.438855 0.997179 0.060848
v 0.435803 0.997179 0.043837
v 0.433937 0.997179 0.025401
v 0.433328 0.997179 0.006247
v 0.434000 0.997179 -0.012889
v 0.435928 0.997179 -0.031272
v 0.439036 0.997179 -0.048194
v 0.443206 0.997179 -0.063003
v 0.448278 0.997179 -0.075135
v 0.454056 0.997179 -0.084120
v 0.460318 0.997179 -0.089614
v 0.466824 0.997179 -0.091407
v 0.473324 0.997179 -0.089429
v 0.479568 0.997179 -0.083752
v 0.485315 0.997179 -0.074602
v 0.466661 0.000000 0.006727
v 0.466661 0.997179 0.006727
v -0.466661 0.997179 -0.006727
v -0.466661 -0.000000 -0.006727
v -0.448007 0.997179 -0.088057
v -0.453755 0.997179 -0.097207
v -0.459998 0.997179 -0.102883
v -0.466498 0.997179 -0.104861
v -0.473004 0.997179 -0.103068
v -0.479266 0.997179 -0.097575
v -0.485044 0.997179 -0.088589
v -0.490116 0.997179 -0.076457
v -0.494286 0.997179 -0.061646
v -0.497394 0.997179 -0.044723
v -0.499322 0.997179 -0.026343
v -0.499994 0.997179 -0.007207
v -0.499385 0.997179 0.011947
v -0.497519 0.997179 0.030383
v -0.494467 0.997179 0.047393
v -0.490346 0.997179 0.062326
v -0.485315 0.997179 0.074602
v -0.479568 0.997179 0.083752
v -0.473324 0.997179 0.089428
v -0.466824 0.997179 0.091407
v -0.460318 0.997179 0.089614
v -0.454056 0.997179 0.084120
v -0.448278 0.997179 0.075135
v -0.443207 0.997179 0.063006
v -0.439036 0.997179 0.048194
v -0.435928 0.997179 0.031272
v -0.434000 0.997179 0.012889
v -0.433328 0.997179 -0.006247
v -0.433937 0.997179 -0.025401
v -0.435803 0.997179 -0.043837
v -0.438855 0.997179 -0.060848
v -0.442976 0.997179 -0.075777
v -0.448007 -0.000000 -0.088054
v -0.453754 -0.000000 -0.097207
v -0.459998 -0.000000 -0.102880
v -0.466498 -0.000000 -0.104861
v -0.473004 -0.000000 -0.103068
v -0.479266 -0.000000 -0.097575
v -0.485044 -0.000000 -0.088589
v -0.490116 -0.000000 -0.076457
v -0.494286 -0.000000 -0.061645
v -0.497394 -0.000000 -0.044726
v -0.499322 -0.000000 -0.026343
v -0.499994 -0.000000 -0.007207
v -0.499385 0.000000 0.011947
v -0.497519 0.000000 0.030383
v -0.494467 0.000000 0.047393
v -0.490346 0.000000 0.062326
v -0.485316 0.000000 0.074602
v -0.479568 0.000000 0.083752
v -0.473324 0.000000 0.089428
v -0.466824 0.000000 0.091407
v -0.460318 0.000000 0.089614
v -0.454056 0.000000 0.084120
v -0.448278 0.000000 0.075135
v -0.443207 0.000000 0.063006
v -0.439036 0.000000 0.048194
v -0.435928 0.000000 0.031272
v -0.434000 0.000000 0.012889
v -0.433328 -0.000000 -0.006247
v -0.433937 -0.000000 -0.025401
v -0.435803 -0.000000 -0.043837
v -0.438855 -0.000000 -0.060848
v -0.442976 -0.000000 -0.075777
v -0.465814 0.986271 -0.041411
v -0.465804 0.981550 -0.047514
v -0.465796 0.976161 -0.052048
v -0.465791 0.970316 -0.054839
v -0.465790 0.964236 -0.055781
v -0.465791 0.958158 -0.054839
v -0.465796 0.952311 -0.052048
v -0.465804 0.946925 -0.047514
v -0.465814 0.942202 -0.041411
v -0.465826 0.938326 -0.033974
v -0.465840 0.935446 -0.025493
v -0.465855 0.933674 -0.016287
v -0.465871 0.933074 -0.006715
v -0.465887 0.933674 0.002859
v -0.465903 0.935446 0.012062
v -0.465917 0.938326 0.020544
v -0.465929 0.942202 0.027980
v -0.465939 0.946925 0.034083
v -0.465947 0.952311 0.038617
v -0.465951 0.958158 0.041408
v -0.465953 0.964236 0.042353
v -0.465951 0.970316 0.041408
v -0.465947 0.976161 0.038617
v -0.465939 0.981550 0.034083
v -0.465929 0.986271 0.027980
v -0.465917 0.990147 0.020544
v -0.465903 0.993026 0.012062
v -0.465887 0.994800 0.002859
v -0.465871 0.995399 -0.006715
v -0.465855 0.994800 -0.016287
v -0.465840 0.993026 -0.025493
v -0.465826 0.990147 -0.033974
v 0.467508 0.986271 -0.027957
v 0.467519 0.981550 -0.034060
v 0.467526 0.976161 -0.038594
v 0.467531 0.970316 -0.041385
v 0.467532 0.964236 -0.042330
v 0.467531 0.958158 -0.041385
v 0.467526 0.952311 -0.038594
v 0.467519 0.946925 -0.034060
v 0.467508 0.942202 -0.027957
v 0.467496 0.938326 -0.020523
v 0.467482 0.935446 -0.012038
v 0.467467 0.933674 -0.002835
v 0.467451 0.933074 0.006739
v 0.467435 0.933674 0.016310
v 0.467420 0.935446 0.025516
v 0.467405 0.938326 0.033998
v 0.467393 0.942202 0.041435
v 0.467383 0.946925 0.047535
v 0.467375 0.952311 0.052071
v 0.467371 0.958158 0.054862
v 0.467369 0.964236 0.055804
v 0.467371 0.970316 0.054862
v 0.467375 0.976161 0.052071
v 0.467383 0.981550 0.047535
v 0.467393 0.986271 0.041435
v 0.467405 0.990147 0.033998
v 0.467420 0.993026 0.025516
v 0.467435 0.994800 0.016310
v 0.467451 0.995399 0.006739
v 0.467467 0.994800 -0.002835
v 0.467482 0.993026 -0.012038
v 0.467496 0.990147 -0.020523
v -0.465871 0.964236 -0.006715
v 0.467451 0.964236 0.006739
v -0.459830 0.000247 -0.105700
v -0.459830 0.498835 -0.105700
v -0.458524 0.001554 -0.890770
v 0.469231 0.001554 -0.881690
v 0.467925 1.000000 -0.096621
v 0.467925 0.000247 -0.096621
v 0.467925 1.000000 -0.096621
v 0.469231 0.001554 -0.881690
v -0.463784 0.001554 -0.895139
v -0.465090 1.000000 -0.110069
v -0.465090 0.000247 -0.110069
v -0.465090 1.000000 -0.110069
v -0.463784 0.001554 -0.895139
v 0.467925 1.000000 -0.096621
v 0.469231 0.001554 -0.881690
v -0.465090 0.000247 -0.110069
v -0.465090 1.000000 -0.110069
v -0.463784 0.001554 -0.895139
v -0.465191 0.001554 -0.890770
v -0.466496 0.498835 -0.105700
v -0.466496 0.000247 -0.105700
v 0.474809 0.001554 -0.890770
v 0.473504 0.498835 -0.105700
v 0.473504 0.000247 -0.105700
v 0.468143 0.001554 -0.890770
v 0.466837 0.498835 -0.105700
v 0.466837 0.000247 -0.105700
v 0.469231 0.001554 -0.881690
v 0.467925 1.000000 -0.096621
v 0.467925 0.000247 -0.096621
vn -0.000000 -1.000000 0.000000
vn 0.999999 0.000000 0.001664
vn -0.999999 -0.000000 -0.001664
vn -0.011330 -0.618071 0.786040
vn 0.011330 0.618071 -0.786040
vn -0.999999 -0.000000 -0.001662
vn 0.999999 0.000000 0.001662
vn 0.000000 1.000000 0.000000
vn -0.999999 0.000005 -0.001640
vn 0.999999 0.000113 0.001714
vn -0.999999 -0.000078 -0.001675
vn 0.999999 -0.000075 0.001634
vn -0.999999 -0.000059 -0.001670
vn 0.999999 0.000059 0.001670
vn -0.999999 0.000094 -0.001651
vn 0.999999 -0.000090 0.001651
vn -0.999999 -0.000094 -0.001651
vn 0.999999 0.000090 0.001651
vn -0.999999 0.000059 -0.001670
vn 0.999999 -0.000059 0.001670
vn -0.999999 0.000078 -0.001675
vn 0.999999 0.000075 0.001634
vn -0.999999 -0.000005 -0.001640
vn 0.999999 -0.000113 0.001714
vn -0.999999 -0.000024 -0.001628
vn 0.999999 0.000027 0.001625
vn -0.999999 0.000000 -0.001651
vn 0.999999 -0.000000 0.001651
vn -0.999999 -0.000013 -0.001631
vn 0.999999 0.000013 0.001631
vn -0.999999 -0.000000 -0.001672
vn 0.999999 0.000000 0.001672
vn -0.999999 -0.000020 -0.001735
vn 0.999999 -0.000013 0.001631
vn -0.999999 0.000030 -0.001658
vn 0.999998 0.000064 0.001749
vn -0.999999 0.000049 -0.001640
vn 0.999999 -0.000052 0.001638
vn -0.999999 0.000025 -0.001655
vn 0.999999 -0.000021 0.001658
vn -0.999999 -0.000063 -0.001693
vn 0.999999 0.000058 0.001692
vn -0.999999 0.000104 -0.001649
vn 0.999999 -0.000100 0.001650
vn -0.999999 -0.000069 -0.001671
vn 0.999999 0.000069 0.001672
vn -0.999999 0.000069 -0.001671
vn 0.999999 -0.000069 0.001672
vn -0.999999 -0.000104 -0.001649
vn 0.999999 0.000100 0.001650
vn -0.999999 0.000063 -0.001693
vn 0.999999 -0.000058 0.001692
vn -0.999999 -0.000025 -0.001655
vn 0.999999 0.000021 0.001658
vn -0.999999 -0.000049 -0.001640
vn 0.999999 0.000052 0.001638
vn -0.999999 -0.000030 -0.001658
vn 0.999999 -0.000064 0.001749
vn -0.999998 0.000020 -0.001735
vn -0.999999 0.000013 -0.001631
vn -0.999999 0.000024 -0.001628
vn 0.999999 -0.000027 0.001625
vn 0.006663 0.886695 -0.462308
vn 0.006662 0.886770 -0.462164
vn 0.004632 0.946950 -0.321349
vn 0.004633 0.946916 -0.321448
vn 0.002728 0.981916 -0.189298
vn 0.002728 0.981927 -0.189239
vn 0.000899 0.998052 -0.062376
vn 0.000899 0.998051 -0.062395
vn -0.000899 0.998051 0.062395
vn -0.000899 0.998052 0.062376
vn -0.002728 0.981927 0.189239
vn -0.002728 0.981916 0.189297
vn -0.004634 0.946916 0.321448
vn -0.004634 0.946916 0.321449
vn -0.006662 0.886769 0.462164
vn -0.006662 0.886770 0.462164
vn -0.008821 0.790800 0.612011
vn -0.008820 0.790943 0.611827
vn -0.011027 0.644028 0.764923
vn -0.011027 0.643783 0.765128
vn -0.013007 0.430884 0.902314
vn -0.013007 0.430884 0.902313
vn -0.014241 0.153104 0.988107
vn -0.014243 0.153571 0.988035
vn -0.014244 -0.153150 0.988100
vn -0.014240 -0.153617 0.988028
vn -0.013008 -0.430773 0.902366
vn -0.011023 -0.644161 0.764811
vn -0.011028 -0.643916 0.765016
vn -0.008825 -0.790688 0.612156
vn -0.008820 -0.790831 0.611971
vn -0.006662 -0.886770 0.462164
vn -0.004634 -0.946916 0.321448
vn -0.004634 -0.946916 0.321449
vn -0.002725 -0.981961 0.189061
vn -0.002726 -0.981950 0.189119
vn -0.000902 -0.998039 0.062581
vn -0.000902 -0.998041 0.062562
vn 0.000902 -0.998041 -0.062562
vn 0.000902 -0.998039 -0.062581
vn 0.002726 -0.981950 -0.189120
vn 0.002725 -0.981961 -0.189061
vn 0.004631 -0.946950 -0.321349
vn 0.004634 -0.946916 -0.321449
vn 0.006664 -0.886694 -0.462308
vn 0.006661 -0.886769 -0.462164
vn 0.008822 -0.790831 -0.611970
vn 0.008822 -0.790831 -0.611971
vn 0.011028 -0.643915 -0.765018
vn 0.011028 -0.643916 -0.765017
vn 0.013008 -0.430776 -0.902365
vn 0.013008 -0.430775 -0.902365
vn 0.014240 -0.153614 -0.988028
vn 0.014244 -0.153147 -0.988101
vn 0.014243 0.153568 -0.988035
vn 0.014241 0.153102 -0.988108
vn 0.013007 0.430887 -0.902312
vn 0.013007 0.430886 -0.902312
vn 0.011030 0.643781 -0.765130
vn 0.011030 0.643782 -0.765129
vn 0.008820 0.790944 -0.611825
vn 0.008820 0.790943 -0.611826
vn 0.963950 -0.000000 -0.266084
vn 0.984283 -0.000000 -0.176596
vn 0.994917 -0.000000 -0.100701
vn 0.999495 -0.000000 -0.031779
vn 0.999384 0.000000 0.035094
vn 0.994545 0.000000 0.104309
vn 0.983549 0.000000 0.180642
vn 0.962562 0.000000 0.271061
vn 0.922616 0.000000 0.385721
vn 0.841104 0.000000 0.540874
vn 0.659480 0.000000 0.751722
vn 0.265676 0.000000 0.964062
vn -0.291181 0.000000 0.956668
vn -0.672657 0.000000 0.739954
vn -0.846824 0.000000 0.531873
vn -0.846782 0.000001 0.531940
vn -0.925316 0.000001 0.379197
vn -0.925343 0.000000 0.379131
vn -0.963964 0.000000 0.266033
vn -0.984283 0.000000 0.176596
vn -0.994917 0.000000 0.100703
vn -0.999495 0.000000 0.031779
vn -0.999384 -0.000000 -0.035095
vn -0.994543 -0.000000 -0.104326
vn -0.994545 0.000000 -0.104309
vn -0.983549 0.000001 -0.180640
vn -0.983544 -0.000000 -0.180671
vn -0.962579 -0.000000 -0.271002
vn -0.922622 -0.000000 -0.385705
vn -0.841102 -0.000000 -0.540876
vn -0.659481 -0.000000 -0.751721
vn -0.265675 -0.000000 -0.964063
vn 0.291182 -0.000000 -0.956668
vn 0.291577 -0.000003 -0.956547
vn 0.672715 -0.000002 -0.739902
vn 0.672466 0.000001 -0.740128
vn 0.846782 0.000001 -0.531939
vn 0.846900 -0.000002 -0.531752
vn 0.925349 -0.000001 -0.379117
vn 0.925317 -0.000000 -0.379195
vn 0.925343 -0.000000 -0.379131
vn 0.925316 0.000001 -0.379197
vn 0.846824 -0.000000 -0.531873
vn 0.846782 0.000001 -0.531940
vn 0.672657 -0.000000 -0.739954
vn 0.291181 -0.000000 -0.956668
vn -0.265676 -0.000000 -0.964062
vn -0.659480 -0.000000 -0.751722
vn -0.841104 -0.000000 -0.540874
vn -0.922616 -0.000000 -0.385721
vn -0.962565 -0.000000 -0.271052
vn -0.962562 -0.000000 -0.271061
vn -0.983549 -0.000000 -0.180642
vn -0.999384 -0.000000 -0.035094
vn -0.994917 0.000000 0.100702
vn -0.994917 0.000000 0.100701
vn -0.963950 0.000000 0.266084
vn -0.925349 -0.000001 0.379117
vn -0.925317 0.000000 0.379195
vn -0.846823 0.000000 0.531874
vn -0.846900 -0.000002 0.531752
vn -0.672466 0.000000 0.740128
vn -0.291577 0.000000 0.956547
vn 0.265675 0.000000 0.964063
vn 0.659481 0.000000 0.751721
vn 0.841102 0.000000 0.540876
vn 0.922622 0.000000 0.385705
vn 0.962579 0.000000 0.271002
vn 0.983544 0.000000 0.180671
vn 0.999384 0.000000 0.035095
vn 0.994916 -0.000000 -0.100703
vn 0.963964 -0.000000 -0.266033
usemtl grey_naogoalnet.png
s off
f 68//1 126//1 125//1
f 206//2 205//2 204//2
f 207//3 209//3 208//3
f 216//2 215//2 214//2
f 226//3 228//3 227//3
f 213//4 212//4 210//4
f 213//4 210//4 211//4
f 202//5 207//5 208//5
f 202//5 208//5 203//5
usemtl white
f 201//2 200//2 199//2
f 217//6 219//6 218//6
f 220//7 221//7 222//7
f 223//3 225//3 224//3
usemtl sky-blue
f 65//1 1//1 2//1
f 66//8 34//8 33//8
f 65//1 2//1 3//1
f 66//8 35//8 34//8
f 65//1 3//1 4//1
f 66//8 36//8 35//8
f 65//1 4//1 5//1
f 66//8 37//8 36//8
f 65//1 5//1 6//1
f 66//8 38//8 37//8
f 65//1 6//1 7//1
f 66//8 39//8 38//8
f 65//1 7//1 8//1
f 66//8 40//8 39//8
f 65//1 8//1 9//1
f 66//8 41//8 40//8
f 65//1 9//1 10//1
f 66//8 42//8 41//8
f 65//1 10//1 11//1
f 66//8 43//8 42//8
f 65//1 11//1 12//1
f 66//8 44//8 43//8
f 65//1 12//1 13//1
f 66//8 45//8 44//8
f 65//1 13//1 14//1
f 66//8 46//8 45//8
f 65//1 14//1 15//1
f 66//8 47//8 46//8
f 65//1 15//1 16//1
f 66//8 48//8 47//8
f 65//1 16//1 17//1
f 66//8 49//8 48//8
f 65//1 17//1 18//1
f 66//8 50//8 49//8
f 65//1 18//1 19//1
f 66//8 51//8 50//8
f 65//1 19//1 20//1
f 66//8 52//8 51//8
f 65//1 20//1 21//1
f 66//8 53//8 52//8
f 65//1 21//1 22//1
f 66//8 54//8 53//8
f 65//1 22//1 23//1
f 66//8 55//8 54//8
f 65//1 23//1 24//1
f 66//8 56//8 55//8
f 65//1 24//1 25//1
f 66//8 57//8 56//8
f 65//1 25//1 26//1
f 66//8 58//8 57//8
f 65//1 26//1 27//1
f 66//8 59//8 58//8
f 65//1 27//1 28//1
f 66//8 60//8 59//8
f 65//1 28//1 29//1
f 66//8 61//8 60//8
f 65//1 29//1 30//1
f 66//8 62//8 61//8
f 65//1 30//1 31//1
f 66//8 63//8 62//8
f 65//1 31//1 32//1
f 66//8 64//8 63//8
f 32//1 1//1 65//1
f 66//8 33//8 64//8
f 67//8 100//8 69//8
f 68//1 101//1 132//1
f 67//8 69//8 70//8
f 68//1 102//1 101//1
f 67//8 70//8 71//8
f 68//1 103//1 102//1
f 67//8 71//8 72//8
f 68//1 104//1 103//1
f 67//8 72//8 73//8
f 68//1 105//1 104//1
f 67//8 73//8 74//8
f 68//1 106//1 105//1
f 67//8 74//8 75//8
f 68//1 107//1 106//1
f 67//8 75//8 76//8
f 68//1 108//1 107//1
f 67//8 76//8 77//8
f 68//1 109//1 108//1
f 67//8 77//8 78//8
f 68//1 110//1 109//1
f 67//8 78//8 79//8
f 68//1 111//1 110//1
f 67//8 79//8 80//8
f 68//1 112//1 111//1
f 67//8 80//8 81//8
f 68//1 113//1 112//1
f 67//8 81//8 82//8
f 68//1 114//1 113//1
f 67//8 82//8 83//8
f 68//1 115//1 114//1
f 67//8 83//8 84//8
f 68//1 116//1 115//1
f 67//8 84//8 85//8
f 68//1 117//1 116//1
f 67//8 85//8 86//8
f 68//1 118//1 117//1
f 67//8 86//8 87//8
f 68//1 119//1 118//1
f 67//8 87//8 88//8
f 68//1 120//1 119//1
f 67//8 88//8 89//8
f 68//1 121//1 120//1
f 67//8 89//8 90//8
f 68//1 122//1 121//1
f 67//8 90//8 91//8
f 68//1 123//1 122//1
f 67//8 91//8 92//8
f 68//1 124//1 123//1
f 67//8 92//8 93//8
f 68//1 125//1 124//1
f 67//8 93//8 94//8
f 67//8 94//8 95//8
f 68//1 127//1 126//1
f 67//8 95//8 96//8
f 68//1 128//1 127//1
f 67//8 96//8 97//8
f 68//1 129//1 128//1
f 67//8 97//8 98//8
f 68//1 130//1 129//1
f 67//8 98//8 99//8
f 68//1 131//1 130//1
f 67//8 99//8 100//8
f 68//1 132//1 131//1
f 197//9 133//9 134//9
f 198//10 166//10 165//10
f 197//11 134//11 135//11
f 198//12 167//12 166//12
f 197//13 135//13 136//13
f 198//14 168//14 167//14
f 197//15 136//15 137//15
f 198//16 169//16 168//16
f 197//17 137//17 138//17
f 198//18 170//18 169//18
f 197//19 138//19 139//19
f 198//20 171//20 170//20
f 197//21 139//21 140//21
f 198//22 172//22 171//22
f 197//23 140//23 141//23
f 198//24 173//24 172//24
f 197//25 141//25 142//25
f 198//26 174//26 173//26
f 197//27 142//27 143//27
f 198//28 175//28 174//28
f 197//29 143//29 144//29
f 198//30 176//30 175//30
f 197//31 144//31 145//31
f 198//32 177//32 176//32
f 197//31 145//31 146//31
f 198//32 178//32 177//32
f 197//33 146//33 147//33
f 198//34 179//34 178//34
f 197//35 147//35 148//35
f 198//36 180//36 179//36
f 197//37 148//37 149//37
f 198//38 181//38 180//38
f 197//39 149//39 150//39
f 198//40 182//40 181//40
f 197//41 150//41 151//41
f 198//42 183//42 182//42
f 197//43 151//43 152//43
f 198//44 184//44 183//44
f 197//45 152//45 153//45
f 198//46 185//46 184//46
f 197//47 153//47 154//47
f 198//48 186//48 185//48
f 197//49 154//49 155//49
f 198//50 187//50 186//50
f 197//51 155//51 156//51
f 198//52 188//52 187//52
f 197//53 156//53 157//53
f 198//54 189//54 188//54
f 197//55 157//55 158//55
f 198//56 190//56 189//56
f 197//57 158//57 159//57
f 198//58 191//58 190//58
f 197//59 159//59 160//59
f 198//30 192//30 191//30
f 197//31 160//31 161//31
f 198//32 193//32 192//32
f 197//31 161//31 162//31
f 198//32 194//32 193//32
f 197//60 162//60 163//60
f 198//34 195//34 194//34
f 197//27 163//27 164//27
f 198//28 196//28 195//28
f 197//61 164//61 133//61
f 198//62 165//62 196//62
f 164//63 196//63 165//63
f 164//64 165//64 133//64
f 163//65 195//65 196//65
f 163//66 196//66 164//66
f 162//67 194//67 195//67
f 162//68 195//68 163//68
f 161//69 193//69 194//69
f 161//70 194//70 162//70
f 160//71 192//71 193//71
f 160//72 193//72 161//72
f 159//73 191//73 192//73
f 159//74 192//74 160//74
f 158//75 190//75 191//75
f 158//76 191//76 159//76
f 157//77 189//77 190//77
f 157//78 190//78 158//78
f 156//79 188//79 189//79
f 156//80 189//80 157//80
f 155//81 187//81 188//81
f 155//82 188//82 156//82
f 154//83 186//83 187//83
f 154//84 187//84 155//84
f 153//85 185//85 186//85
f 153//86 186//86 154//86
f 152//87 184//87 185//87
f 152//88 185//88 153//88
f 151//89 183//89 184//89
f 151//89 184//89 152//89
f 150//90 182//90 183//90
f 150//91 183//91 151//91
f 149//92 181//92 182//92
f 149//93 182//93 150//93
f 148//94 180//94 181//94
f 148//94 181//94 149//94
f 147//95 179//95 180//95
f 147//96 180//96 148//96
f 146//97 178//97 179//97
f 146//98 179//98 147//98
f 145//99 177//99 178//99
f 145//100 178//100 146//100
f 144//101 176//101 177//101
f 144//102 177//102 145//102
f 143//103 175//103 176//103
f 143//104 176//104 144//104
f 142//105 174//105 175//105
f 142//106 175//106 143//106
f 141//107 173//107 174//107
f 141//108 174//108 142//108
f 140//109 172//109 173//109
f 140//110 173//110 141//110
f 139//111 171//111 172//111
f 139//112 172//112 140//112
f 138//113 170//113 171//113
f 138//114 171//114 139//114
f 137//115 169//115 170//115
f 137//116 170//116 138//116
f 136//117 168//117 169//117
f 136//118 169//118 137//118
f 135//119 167//119 168//119
f 135//120 168//120 136//120
f 134//121 166//121 167//121
f 134//122 167//122 135//122
f 133//123 165//123 166//123
f 133//124 166//124 134//124
f 132//125 100//125 99//125
f 132//125 99//125 131//125
f 131//126 99//126 98//126
f 131//126 98//126 130//126
f 130//127 98//127 97//127
f 130//127 97//127 129//127
f 129//128 97//128 96//128
f 129//128 96//128 128//128
f 128//129 96//129 95//129
f 128//129 95//129 127//129
f 127//130 95//130 94//130
f 127//130 94//130 126//130
f 126//131 94//131 93//131
f 126//131 93//131 125//131
f 125//132 93//132 92//132
f 125//132 92//132 124//132
f 124//133 92//133 91//133
f 124//133 91//133 123//133
f 123//134 91//134 90//134
f 123//134 90//134 122//134
f 122//135 90//135 89//135
f 122//135 89//135 121//135
f 121//136 89//136 88//136
f 121//136 88//136 120//136
f 120//137 88//137 87//137
f 120//137 87//137 119//137
f 119//138 87//138 86//138
f 119//138 86//138 118//138
f 118//139 86//139 85//139
f 118//140 85//140 117//140
f 117//141 85//141 84//141
f 117//142 84//142 116//142
f 116//143 84//143 83//143
f 116//143 83//143 115//143
f 115//144 83//144 82//144
f 115//144 82//144 114//144
f 114//145 82//145 81//145
f 114//145 81//145 113//145
f 113//146 81//146 80//146
f 113//146 80//146 112//146
f 112//147 80//147 79//147
f 112//147 79//147 111//147
f 111//148 79//148 78//148
f 111//149 78//149 110//149
f 110//150 78//150 77//150
f 110//151 77//151 109//151
f 109//152 77//152 76//152
f 109//152 76//152 108//152
f 108//153 76//153 75//153
f 108//153 75//153 107//153
f 107//154 75//154 74//154
f 107//154 74//154 106//154
f 106//155 74//155 73//155
f 106//155 73//155 105//155
f 105//156 73//156 72//156
f 105//156 72//156 104//156
f 104//157 72//157 71//157
f 104//158 71//158 103//158
f 103//159 71//159 70//159
f 103//160 70//160 102//160
f 102//161 70//161 69//161
f 102//162 69//162 101//162
f 101//163 69//163 100//163
f 101//164 100//164 132//164
f 33//165 1//165 32//165
f 33//166 32//166 64//166
f 31//167 63//167 64//167
f 31//168 64//168 32//168
f 30//169 62//169 63//169
f 30//169 63//169 31//169
f 29//170 61//170 62//170
f 29//170 62//170 30//170
f 28//171 60//171 61//171
f 28//171 61//171 29//171
f 27//172 59//172 60//172
f 27//172 60//172 28//172
f 26//173 58//173 59//173
f 26//173 59//173 27//173
f 25//153 57//153 58//153
f 25//174 58//174 26//174
f 24//175 56//175 57//175
f 24//176 57//176 25//176
f 23//177 55//177 56//177
f 23//177 56//177 24//177
f 22//149 54//149 55//149
f 22//149 55//149 23//149
f 21//178 53//178 54//178
f 21//178 54//178 22//178
f 20//146 52//146 53//146
f 20//146 53//146 21//146
f 19//179 51//179 52//179
f 19//180 52//180 20//180
f 18//144 50//144 51//144
f 18//144 51//144 19//144
f 17//181 49//181 50//181
f 17//181 50//181 18//181
f 16//182 48//182 49//182
f 16//183 49//183 17//183
f 15//184 47//184 48//184
f 15//185 48//185 16//185
f 14//186 46//186 47//186
f 14//186 47//186 15//186
f 13//187 45//187 46//187
f 13//187 46//187 14//187
f 12//188 44//188 45//188
f 12//188 45//188 13//188
f 11//189 43//189 44//189
f 11//189 44//189 12//189
f 10//190 42//190 43//190
f 10//190 43//190 11//190
f 9//191 41//191 42//191
f 9//191 42//191 10//191
f 8//192 40//192 41//192
f 8//192 41//192 9//192
f 7//193 39//193 40//193
f 7//193 40//193 8//193
f 6//130 38//130 39//130
f 6//130 39//130 7//130
f 5//194 37//194 38//194
f 5//194 38//194 6//194
f 4//128 36//128 37//128
f 4//128 37//128 5//128
f 3//195 35//195 36//195
f 3//195 36//195 4//195
f 2//126 34//126 35//126
f 2//126 35//126 3//126
f 1//196 33//196 34//196
f 1//196 34//196 2//196
