/* XPM */
static const char *xpm_paste[] = {
/* columns rows colors chars-per-pixel */
"18 17 7 1",
". c Black",
"+ c #FFFFFF",
"@ c #000080",
"X c #FFFF00",
"  c None",
"O c #C0C0C0",
"o c #808000",
/* pixels */
"                  ",
"                  ",
"      ....        ",
"  .....XX.....    ",
" .oOo.X..X.OoO.   ",
" .OO.++++++.Oo.   ",
" .o+........OO.   ",
" .OoOoOoOoOoOo.   ",
" .oOoOo@@@@@@@.   ",
" .OoOoO@+++++@@   ",
" .oOoOo@+++++@+@  ",
" .OoOoO@+...+@@@@ ",
" .oOoOo@++++++++@ ",
" .OoOoO@+......+@ ",
"  .....@++++++++@ ",
"       @@@@@@@@@@ ",
"                  "
};
