/* XPM */
static const char *xpm_play[] = {
/* columns rows colors chars-per-pixel */
"16 16 2 1",
"  c None",
". c black",
/* pixels */
"                ",
"     ...        ",
"     ....       ",
"     .....      ",
"     .. ...     ",
"     ..  ...    ",
"     ..   ...   ",
"     ..    ...  ",
"     ..   ...   ",
"     ..  ...    ",
"     .. ...     ",
"     .....      ",
"     ....       ",
"     ...        ",
"                ",
"                "
};
