/* XPM */
static const char *xpm_stop[] = {
/* columns rows colors chars-per-pixel */
"16 16 2 1",
"  c gray100",
". c black",
/* pixels */
"                ",
" .............  ",
" .............  ",
" .............  ",
" .............  ",
" .............  ",
" .............  ",
" .............  ",
" .............  ",
" .............  ",
" .............  ",
" .............  ",
" .............  ",
" .............  ",
"                ",
"                "
};
