/* XPM */
static const char *xpm_rsg[] = {
/* columns rows colors chars-per-pixel */
"16 16 10 1",
"o c Black",
"  c None",
"@ c #008000",
"+ c #FFFF00",
". c #004080",
"X c #00FFFF",
"$ c #800000",
"% c #FF0000",
"O c #808000",
"# c #00FF00",
/* pixels */
"   ...          ",
"   ...          ",
"   .X.          ",
"   ...          ",
"    o           ",
"    o  OOO      ",
"    oooO+O      ",
"    o  OOO      ",
"    o   o       ",
"    o   o  @@@  ",
"    o   ooo@#@  ",
"    o   o  @@@  ",
"    o   o       ",
"   $$$  o  @@@  ",
"   $%$  ooo@#@  ",
"   $$$     @@@  "
};
