/* XPM */
static const char *xpm_reload[] = {
"16 16 5 1",
" 	c None",
".	c #000000",
"X	c #808080",
"o	c #FFFFFF",
"O	c #008000",
" ..........X    ",
" .ooooooooo..   ",
" .ooooooOoo. .  ",
" .ooooooOOoX..X ",
" .ooooOOOOOooo. ",
" .oooOooOOoooo. ",
" .oooOooOooooo. ",
" .oooOooooOooo. ",
" .oooooOooOooo. ",
" .ooooOOooOooo. ",
" .oooOOOOOoooo. ",
" .ooooOOoooooo. ",
" .oooooOoooooo. ",
" .oooooooooooo. ",
" .............. ",
"                "};
