/* XPM */
static const char *xpm_spark[] = {
/* columns rows colors chars-per-pixel */
"16 16 102 2",
"a  c #F7F7F6",
"e  c #A8B29F",
"[  c #FFA33B",
"`  c #9CA791",
"m  c #728162",
"$  c #3A3C3B",
"z  c #FAFBFA",
"G  c #D0D5CB",
"#  c #FFFFFF",
"X  c #767876",
"N  c #7B7C7C",
"(  c #FFF9F2",
"9  c #B2B4B1",
"i  c #2E312C",
"$. c #656962",
"|  c #EEF0EC",
"O  c #333532",
"c  c #F3F4F1",
"g  c #7F8D71",
"=  c #AEB7A5",
"]  c #FFDEB9",
"E  c #6E7E5E",
"k  c #9DA892",
"%  c #D1D6CC",
"x  c #7C7D7D",
"O. c #2A2E28",
"&  c #EAEDE8",
"_  c #EFF1ED",
"}  c #343633",
"Z  c #7B8A6C",
"j  c #70726F",
"q  c #808E72",
"L  c #859277",
"Q  c #CDD3C8",
"S  c #A3AD99",
"K  c #88967C",
"I  c #2B2F29",
"P  c #929E86",
"F  c #6C6F6B",
"+. c #A8ABA4",
"d  c #818F74",
"R  c #B0B9A8",
"#. c #292C25",
";  c #E9EBE6",
"V  c #708061",
"o. c #EEE9DD",
"B  c #DDE0D9",
"{  c #FFE0BD",
"t  c #939F88",
"3  c #C2C9BB",
".  c #313430",
"D  c #98A38D",
"J  c #9DA792",
"8  c #F6F7F5",
">  c #3B3C3B",
"4  c #FBFBFA",
"r  c #829074",
"5  c #B1BAA8",
"v  c #879479",
"2  c #BBC2B3",
"!  c #EAECE8",
"A  c #718162",
"h  c #D4D9CF",
"u  c #7B896D",
"'  c #AAB3A1",
"/  c #FFBC71",
".. c #FFB968",
"X. c #FFB96A",
"o  c #7F8080",
"l  c #94A088",
":  c #F7F8F6",
"f  c #88957B",
"M  c #C1C7BA",
"y  c #A1AC97",
"0  c #F0F1EE",
",  c #D5DAD0",
"n  c #7C8A6E",
"H  c #DFE2DB",
" . c #FFF7EE",
"6  c #667755",
"<  c #667756",
"   c None",
"@. c #F8F9F8",
"w  c #9FA995",
"p  c #FDFDFD",
"T  c #ABAEA8",
"^  c #FEBA6E",
"s  c #89967C",
")  c #2C2F29",
"+  c #B5B6B4",
"C  c #ECEEEA",
"1  c #788769",
"W  c #A7B19E",
"Y  c #677856",
"*  c #F9FAF8",
"-  c #A0AA96",
"@  c #FEFEFE",
"%. c #757775",
"7  c #859378",
"~  c #CFCEBB",
"b  c #8F9B83",
"U  c #EDEFEB",
/* pixels */
"          . X o o X .           ",
"      O + @ # # # # @ + O       ",
"    $ % & # # # * = - ; : >     ",
"  . , < 1 2 3 4 5 6 6 7 # 8 .   ",
"  9 0 q w e r t y 6 6 u # # 9   ",
"i p # # a s 6 6 d f g h # # p i ",
"j # # # k 6 6 6 6 l z # # # # j ",
"x # c v b n 6 6 6 m M # # # # x ",
"N # B 6 V C Z 6 A S D # # # # N ",
"F # # G H J K L P r & # # # # F ",
"I 4 # @ U Y Y U r 6 G # # # 4 I ",
"  T # R E W Q # ! ~ ^ / ( # T   ",
"  ) _ p ` ' # # # ] [ [ { _ )   ",
"    } | p 0 # # #  ...X.o.}     ",
"      O.+.@.# # # # @.+.O.      ",
"          #.$.%.%.$.#.          "
};
